<?xml version="1.0" encoding="UTF-8"?>
<!DOCTYPE svg PUBLIC "-//W3C//DTD SVG 1.1//EN" "http://www.w3.org/Graphics/SVG/1.1/DTD/svg11.dtd">
<!-- Creator: CorelDRAW 2019 (64-Bit) -->
<svg xmlns="http://www.w3.org/2000/svg" xml:space="preserve" width="1000px" height="411px" version="1.1" shape-rendering="geometricPrecision" text-rendering="geometricPrecision" image-rendering="optimizeQuality" fill-rule="evenodd" clip-rule="evenodd"
viewBox="0 0 1000 411"
 xmlns:xlink="http://www.w3.org/1999/xlink"
 xmlns:xodm="http://www.corel.com/coreldraw/odm/2003">
 <g id="Layer_x0020_1">
  <metadata id="CorelCorpID_0Corel-Layer"/>
  <g id="_1584466472736">
   <path fill="#029E4D" fill-rule="nonzero" d="M87 196l-16 -16 -17 16 8 0c0,0 0,24 0,29 0,5 6,8 9,8 3,0 9,0 9,0l17 -18 -17 0 0 -20 7 0z"/>
   <path fill="#029E4D" fill-rule="nonzero" d="M126 216l16 16 17 -16 -8 0c0,0 0,-24 0,-29 0,-5 -6,-8 -9,-8 -3,0 -9,0 -9,0l-17 18 17 0 0 20 -7 0z"/>
   <path fill="#029E4D" fill-rule="nonzero" d="M117 186l16 -16 -16 -17 0 8c0,0 -24,0 -29,0 -5,0 -8,6 -8,9 0,3 0,9 0,9l18 17 0 -17 20 0 0 7z"/>
   <path fill="#029E4D" fill-rule="nonzero" d="M97 226l-16 16 16 17 0 -8c0,0 24,0 29,0 5,0 8,-6 8,-9 0,-3 0,-9 0,-9l-18 -17 0 17 -20 0 0 -7z"/>
   <path fill="#029E4D" fill-rule="nonzero" d="M152 131c0,-7 2,-13 6,-18 -5,-2 -9,-4 -13,-5 -17,-3 -29,4 -35,8 0,0 10,0 21,11 11,11 18,13 24,15 -2,-4 -2,-7 -2,-12z"/>
   <path fill="#029E4D" fill-rule="nonzero" d="M200 153c-5,4 -12,7 -19,7 -3,0 -7,-1 -10,-2 1,7 5,15 15,27 10,12 22,27 23,41 0,0 14,-34 -9,-73z"/>
   <path fill="#029E4D" fill-rule="nonzero" d="M204 131c0,12 -10,23 -23,23 -12,0 -23,-10 -23,-23 0,-12 10,-23 23,-23 12,0 23,10 23,23z"/>
   <path fill="#204485" fill-rule="nonzero" d="M32 160c-7,0 -13,-2 -18,-6 -2,5 -4,9 -5,13 -3,17 4,29 8,35 0,0 0,-10 11,-21 11,-11 13,-18 15,-24 -4,2 -7,2 -12,2z"/>
   <path fill="#204485" fill-rule="nonzero" d="M54 112c4,5 7,12 7,19 0,3 -1,7 -2,10 7,-1 15,-5 27,-15 12,-10 27,-22 41,-23 0,0 -34,-14 -73,9z"/>
   <path fill="#029E4D" fill-rule="nonzero" d="M32 109c12,0 23,10 23,23 0,12 -10,23 -23,23 -12,0 -23,-10 -23,-23 0,-12 10,-23 23,-23z"/>
   <path fill="#029E4D" fill-rule="nonzero" d="M61 281c0,7 -2,13 -6,18 5,2 9,4 13,5 17,3 29,-4 35,-8 0,0 -10,0 -21,-11 -11,-11 -18,-13 -24,-15 2,4 2,7 2,12z"/>
   <path fill="#029E4D" fill-rule="nonzero" d="M13 259c5,-4 12,-7 19,-7 3,0 7,1 10,2 -1,-7 -5,-15 -15,-27 -10,-12 -22,-27 -23,-41 0,0 -4,10 -4,26 0,13 3,29 13,47z"/>
   <path fill="#029E4D" fill-rule="nonzero" d="M10 281c0,-12 10,-23 23,-23 12,0 23,10 23,23 0,12 -10,23 -23,23 -12,0 -23,-10 -23,-23z"/>
   <path fill="#204485" fill-rule="nonzero" d="M182 252c7,0 13,2 18,6 2,-5 4,-9 5,-13 3,-17 -4,-29 -8,-35 0,0 0,10 -11,21 -11,11 -13,18 -15,24 4,-2 7,-2 12,-2z"/>
   <path fill="#204485" fill-rule="nonzero" d="M160 300c-4,-5 -7,-12 -7,-19 0,-3 1,-7 2,-10 -7,1 -15,5 -27,15 -12,10 -27,22 -41,23 0,0 10,4 26,4l0 0c13,0 29,-3 47,-13z"/>
   <path fill="#204485" fill-rule="nonzero" d="M182 303c-12,0 -23,-10 -23,-23 0,-12 10,-23 23,-23 12,0 23,10 23,23 0,12 -10,23 -23,23z"/>
   <path fill="#204485" fill-rule="nonzero" d="M285 215l-13 0c0,0 0,-1 0,-2 0,-3 0,-16 0,-31l11 0c10,0 13,7 13,20 0,8 -7,12 -12,12zm10 -54c0,10 -5,17 -11,17l-12 0c0,-14 0,-26 0,-29 0,-1 0,-1 0,-2l16 0c2,0 8,4 8,14zm2 19c0,0 9,-3 9,-18 0,-15 -8,-21 -18,-21l-25 0c0,0 -1,0 -1,0 -3,0 -3,0 -3,0l0 81c0,0 1,0 3,0 0,0 1,0 1,0l25 0c14,0 21,-9 21,-23 0,-18 -12,-19 -12,-19z"/>
   <path fill="#204485" fill-rule="nonzero" d="M362 172c0,7 -6,12 -12,12l-11 0c0,-1 0,-2 0,-3 0,-15 0,-29 0,-32 0,-1 0,-1 0,-2l13 0c3,0 8,1 10,8 1,3 0,7 0,17zm14 -5c0,-4 0,-8 0,-8 0,-17 -15,-18 -21,-18l-24 0c-1,0 -2,0 -3,0 -1,0 -2,0 -2,0l0 81c0,0 1,0 4,0 3,0 9,-1 9,-8 0,-2 0,-12 0,-24l13 0c7,0 12,0 17,-5 5,-5 6,-13 6,-17z"/>
   <path fill="#204485" fill-rule="nonzero" d="M397 141c-3,0 -4,0 -4,0l0 65c0,5 -4,8 -12,8 -8,0 -10,-1 -16,-6 0,0 -2,-1 -4,-1 -2,0 -4,1 -3,1 0,1 2,6 10,10 8,4 19,4 28,0 8,-3 10,-11 10,-17 0,-3 0,-5 0,-20 0,-15 0,-29 0,-32 0,-7 -5,-8 -9,-8z"/>
   <path fill="#204485" fill-rule="nonzero" d="M452 178c-24,-11 -21,-23 -14,-28 7,-5 16,0 19,2 2,1 7,1 7,-1 -1,-4 -6,-8 -12,-10 -3,-1 -27,-5 -30,15 -3,18 16,26 16,26 0,0 14,7 16,12 3,6 1,12 1,12 -2,3 -5,8 -13,8 -8,0 -10,-1 -16,-6 0,0 -2,-1 -4,-1 -2,0 -4,1 -3,1 0,1 2,6 10,10 8,4 19,4 28,0 8,-3 11,-12 11,-18 0,-3 1,-15 -16,-22z"/>
   <path fill="#029E4D" fill-rule="nonzero" d="M532 145c-4,5 -21,25 -26,31 0,-13 0,-25 0,-28 0,-7 -5,-8 -9,-8 -3,0 -4,0 -4,0l0 81c0,0 1,0 4,0 3,0 9,-1 9,-8 0,-2 0,-12 0,-24l10 -12c2,7 9,25 11,33 3,10 12,10 14,10 2,0 4,0 4,0l-20 -55 20 -25c0,0 -8,-2 -13,4z"/>
   <path fill="#029E4D" fill-rule="nonzero" d="M589 183l-9 0 -16 0c0,-28 27,-29 25,0zm-17 -28c-29,5 -31,73 10,67 6,-1 15,-6 16,-11 -3,-1 -5,0 -8,1 -5,3 -11,5 -18,0 -6,-4 -9,-14 -9,-25l38 0c1,-28 -16,-35 -29,-33z"/>
   <path fill="#029E4D" fill-rule="nonzero" d="M706 183l-9 0 -16 0c0,-28 27,-29 25,0zm-17 -28c-29,5 -31,73 10,67 6,-1 15,-6 16,-11 -3,-1 -5,0 -8,1 -5,3 -11,5 -18,0 -6,-4 -9,-14 -9,-25l38 0c1,-28 -16,-35 -29,-33z"/>
   <path fill="#029E4D" fill-rule="nonzero" d="M636 182c-16,-5 -12,-14 -11,-16 3,-4 11,-7 21,-2 0,0 2,1 4,1 2,0 3,-2 3,-2 0,-1 -4,-7 -18,-7 -14,0 -21,7 -21,18 0,9 4,13 14,18 0,0 3,1 8,4 5,2 8,5 8,10 0,5 -3,11 -11,11 -8,0 -11,-4 -14,-6 -2,-2 -7,-1 -7,1 0,1 5,11 22,11 16,0 23,-10 23,-20 0,-10 -4,-14 -20,-20z"/>
   <path fill="#029E4D" fill-rule="nonzero" d="M763 155c-10,0 -17,5 -20,7 0,-7 0,-13 0,-14 0,-7 -5,-8 -9,-8 -3,0 -4,0 -4,0l0 81c0,0 1,0 4,0 3,0 9,-1 9,-8 0,-3 0,-17 0,-32 0,-4 0,-8 0,-12 3,-2 8,-6 13,-6 7,0 10,3 10,5 0,1 0,4 0,7l0 0c0,0 0,2 0,6 0,1 0,2 0,2 0,0 0,0 0,1 0,0 0,0 0,0 0,1 0,2 0,3 0,13 0,24 0,26 0,7 5,8 9,8 3,0 4,0 4,0l0 -45c0,0 0,-3 0,-7 0,-4 -3,-13 -16,-13z"/>
   <path fill="#029E4D" fill-rule="nonzero" d="M823 185c0,0 0,0 0,0 0,10 0,19 0,24 -3,3 -8,7 -15,5 -4,-1 -9,-8 -6,-17 2,-7 9,-10 13,-10 3,0 7,-2 9,-3 0,0 0,1 0,1zm-6 -30c-10,0 -16,2 -21,6 0,0 -3,3 -3,4 0,0 2,1 4,1 2,0 5,-1 8,-3 3,-2 6,-2 9,-2 3,0 10,2 10,10 0,1 0,5 0,8 -1,1 -4,3 -11,3 -9,1 -20,5 -23,13 -3,8 -2,20 7,24 9,4 20,2 26,-5 1,5 6,6 9,6 3,0 4,0 4,0l0 -44c0,-3 0,-6 0,-7 0,-8 -9,-15 -19,-15z"/>
   <path fill="#029E4D" fill-rule="nonzero" d="M926 185c0,0 0,0 0,0 0,10 0,19 0,24 -3,3 -8,7 -15,5 -4,-1 -9,-8 -6,-17 2,-7 9,-10 13,-10 3,0 7,-2 9,-3 0,0 0,1 0,1zm-6 -30c-10,0 -16,2 -21,6 0,0 -3,3 -3,4 0,0 2,1 4,1 2,0 5,-1 8,-3 3,-2 6,-2 9,-2 3,0 10,2 10,10 0,1 0,5 0,8 -1,1 -4,3 -11,3 -9,1 -20,5 -23,13 -3,8 -2,20 7,24 9,4 20,2 26,-5 1,5 6,6 9,6 3,0 4,0 4,0l0 -44c0,-3 0,-6 0,-7 0,-8 -9,-15 -19,-15z"/>
   <path fill="#029E4D" fill-rule="nonzero" d="M879 215c-2,1 -4,2 -9,1 -5,-1 -7,-6 -7,-11 0,-5 0,-13 0,-13 0,-3 0,-16 0,-30 7,0 14,0 14,0 0,-2 -1,-5 -4,-5 -1,0 -5,0 -10,0 0,-4 0,-6 0,-7 0,0 0,0 0,0 0,0 0,0 0,-1 0,-7 -5,-8 -9,-8 -3,0 -4,0 -4,0l0 15c-4,0 -8,0 -8,0 0,2 1,5 3,5 0,0 2,0 4,0l0 38c0,20 11,23 19,23 7,0 15,-5 15,-5 -1,-1 -4,-3 -5,-3z"/>
   <path fill="#029E4D" fill-rule="nonzero" d="M983 155c-10,0 -18,6 -21,8 0,0 0,-1 0,-1 0,-7 -5,-8 -9,-8 -3,0 -4,0 -4,0l0 67c0,0 1,0 4,0 3,0 9,-1 9,-8 0,-3 0,-3 0,-19 0,-10 0,-19 0,-25 1,-1 3,-3 5,-4 6,-3 13,-3 16,0 2,3 2,7 2,15 0,1 0,3 0,15 0,15 0,16 0,19 0,7 5,8 9,8 3,0 4,0 4,0l0 -50c0,-5 -2,-16 -16,-16z"/>
   <path fill="#204485" fill-rule="nonzero" d="M269 274c2,0 4,0 6,-1 1,-1 2,-2 2,-4 0,-3 -3,-5 -8,-5l-5 0 0 11 5 0zm-1 -14c4,0 7,-2 7,-5 0,-2 -1,-3 -2,-3 -1,-1 -3,-1 -5,-1l-4 0 0 9 4 0zm-9 -13l10 0c3,0 6,1 8,2 2,1 3,3 3,6 0,2 0,3 -1,4 -1,1 -2,2 -3,3l0 0c2,0 3,1 4,2 1,1 2,3 2,5 0,3 -1,5 -3,7 -2,2 -5,2 -9,2l-10 0 0 -31z"/>
   <path fill="#204485" fill-rule="nonzero" d="M296 274c1,0 2,-1 3,-2l0 -6c-3,0 -6,1 -7,2 -1,1 -2,2 -2,3 0,1 0,2 1,2 1,1 2,1 3,1 1,0 2,0 3,-1zm-9 3c-1,-1 -2,-3 -2,-5 0,-2 1,-4 3,-6 2,-1 6,-2 11,-3 0,-3 -2,-5 -4,-5 -2,0 -4,1 -7,2l-2 -3c3,-2 6,-3 9,-3 3,0 5,1 6,3 1,2 2,4 2,7l0 14 -4 0 0 -3 0 0c-3,2 -5,3 -7,3 -2,0 -4,-1 -5,-2z"/>
   <path fill="#204485" fill-rule="nonzero" d="M323 274c1,0 2,-1 3,-2l0 -11c-2,-1 -3,-2 -5,-2 -1,0 -2,0 -3,1 -1,1 -2,2 -2,3 -1,1 -1,3 -1,4 0,3 1,5 1,6 1,1 2,2 4,2 1,0 2,0 3,-1zm-11 1c-2,-2 -3,-5 -3,-9 0,-2 0,-5 1,-6 1,-2 2,-3 4,-4 2,-1 3,-1 5,-1 1,0 2,0 3,1 1,0 2,1 3,2l0 -4 0 -9 5 0 0 33 -4 0 0 -3 0 0c-1,1 -2,2 -3,2 -1,1 -2,1 -4,1 -3,0 -5,-1 -7,-3z"/>
   <path fill="#204485" fill-rule="nonzero" d="M347 274c1,0 2,-1 3,-2l0 -6c-3,0 -6,1 -7,2 -1,1 -2,2 -2,3 0,1 0,2 1,2 1,1 2,1 3,1 1,0 2,0 3,-1zm-9 3c-1,-1 -2,-3 -2,-5 0,-2 1,-4 3,-6 2,-1 6,-2 11,-3 0,-3 -2,-5 -4,-5 -2,0 -4,1 -7,2l-2 -3c3,-2 6,-3 9,-3 3,0 5,1 6,3 1,2 2,4 2,7l0 14 -4 0 0 -3 0 0c-3,2 -5,3 -7,3 -2,0 -4,-1 -5,-2z"/>
   <path fill="#204485" fill-rule="nonzero" d="M361 255l4 0 0 3 0 0c1,-1 2,-2 4,-3 1,-1 3,-1 4,-1 5,0 7,3 7,9l0 15 -5 0 0 -14c0,-2 0,-3 -1,-4 -1,-1 -2,-1 -3,-1 -1,0 -2,0 -3,1 -1,0 -2,1 -3,2l0 16 -5 0 0 -23z"/>
   <path fill="#204485" fill-rule="nonzero" d="M406 262c2,0 4,0 6,-1 1,-1 2,-2 2,-4 0,-2 -1,-3 -2,-4 -1,-1 -3,-1 -6,-1l-4 0 0 11 4 0zm-9 -15l9 0c8,0 12,3 12,9 0,3 -1,6 -3,7 -2,2 -5,2 -8,2l-5 0 0 12 -5 0 0 -31z"/>
   <path fill="#204485" fill-rule="nonzero" d="M437 264c0,-2 0,-4 -1,-5 -1,-1 -2,-2 -4,-2 -1,0 -3,1 -4,2 -1,1 -2,3 -2,5l11 0zm4 3l-15 0c0,2 1,4 2,5 1,1 3,2 5,2 2,0 4,-1 6,-2l2 3c-2,2 -5,2 -8,2 -2,0 -4,0 -6,-1 -2,-1 -3,-2 -4,-4 -1,-2 -1,-4 -1,-6 0,-2 1,-5 1,-6 1,-2 2,-3 4,-4 2,-1 3,-1 5,-1 3,0 5,1 7,3 2,2 2,5 2,8 0,1 0,2 0,2z"/>
   <path fill="#204485" fill-rule="nonzero" d="M446 255l4 0 0 3 0 0c1,-1 2,-2 4,-3 1,-1 3,-1 4,-1 5,0 7,3 7,9l0 15 -5 0 0 -14c0,-2 0,-3 -1,-4 -1,-1 -2,-1 -3,-1 -1,0 -2,0 -3,1 -1,0 -2,1 -3,2l0 16 -5 0 0 -23z"/>
   <path fill="#204485" fill-rule="nonzero" d="M470 287l1 -4c1,0 1,0 2,0 2,0 4,-1 5,-4l0 -2 -9 -23 5 0 4 12 1 4 1 2 0 0c0,-1 1,-2 1,-3l1 -4 4 -12 5 0 -8 24c-1,3 -2,5 -4,6 -1,1 -3,2 -6,2 -1,0 -2,0 -3,0z"/>
   <path fill="#204485" fill-rule="nonzero" d="M509 264c0,-2 0,-4 -1,-5 -1,-1 -2,-2 -4,-2 -1,0 -3,1 -4,2 -1,1 -2,3 -2,5l11 0zm4 3l-15 0c0,2 1,4 2,5 1,1 3,2 5,2 2,0 4,-1 6,-2l2 3c-2,2 -5,2 -8,2 -2,0 -4,0 -6,-1 -2,-1 -3,-2 -4,-4 -1,-2 -1,-4 -1,-6 0,-2 0,-5 1,-6 1,-2 2,-3 4,-4 2,-1 3,-1 5,-1 3,0 5,1 7,3 2,2 2,5 2,8 0,1 0,2 0,2z"/>
   <path fill="#204485" fill-rule="nonzero" d="M520 277c-1,-1 -1,-2 -1,-4l0 -28 5 0 0 28c0,1 0,1 0,1 0,0 0,0 1,0 0,0 1,0 1,0l1 4c-1,0 -2,0 -3,0 -2,0 -3,-1 -4,-2z"/>
   <path fill="#204485" fill-rule="nonzero" d="M545 264c0,-2 0,-4 -1,-5 -1,-1 -2,-2 -4,-2 -1,0 -3,1 -4,2 -1,1 -2,3 -2,5l11 0zm4 3l-15 0c0,2 1,4 2,5 1,1 3,2 5,2 2,0 4,-1 6,-2l2 3c-2,2 -5,2 -8,2 -2,0 -4,0 -6,-1 -2,-1 -3,-2 -4,-4 -1,-2 -1,-4 -1,-6 0,-2 0,-5 1,-6 1,-2 2,-3 4,-4 2,-1 3,-1 5,-1 3,0 5,1 7,3 2,2 2,5 2,8 0,1 0,2 0,2z"/>
   <path fill="#204485" fill-rule="nonzero" d="M555 255l4 0 0 3 0 0c1,-1 2,-2 4,-3 1,-1 3,-1 4,-1 5,0 7,3 7,9l0 15 -5 0 0 -14c0,-2 0,-3 -1,-4 -1,-1 -2,-1 -3,-1 -1,0 -2,0 -3,1 -1,0 -2,1 -3,2l0 16 -5 0 0 -23z"/>
   <path fill="#204485" fill-rule="nonzero" d="M592 266c1,-1 1,-2 1,-4 0,-2 0,-3 -1,-4 -1,-1 -2,-1 -3,-1 -1,0 -2,0 -3,1 -1,1 -1,2 -1,4 0,2 0,3 1,4 1,1 2,1 3,1 1,0 2,0 3,-1zm1 18c1,0 2,-1 2,-2 1,-1 1,-1 1,-2 0,-1 0,-2 -1,-2 -1,0 -2,-1 -3,-1l-4 0c-1,0 -2,0 -3,0 -1,1 -2,2 -2,3 0,1 1,2 2,3 1,1 3,1 5,1 1,0 2,0 3,-1zm-11 2c-2,-1 -3,-3 -3,-5 0,-1 0,-2 1,-3 1,-1 1,-2 2,-2l0 0c-1,-1 -2,-2 -2,-4 0,-1 0,-2 1,-2 0,-1 1,-1 2,-2l0 0c-1,-1 -2,-2 -2,-3 -1,-1 -1,-2 -1,-4 0,-2 0,-3 1,-4 1,-1 2,-2 3,-3 1,-1 3,-1 4,-1 1,0 2,0 3,1l8 0 0 4 -4 0c0,1 1,1 1,2 0,1 0,2 0,2 0,2 -1,4 -2,6 -2,1 -4,2 -6,2 -1,0 -2,0 -3,-1 0,0 -1,1 -1,1 0,0 0,1 0,1 0,1 0,1 1,2 1,0 2,1 3,1l4 0c3,0 5,0 6,1 1,1 2,2 2,4 0,1 0,3 -1,4 -1,1 -2,2 -4,3 -2,1 -4,1 -6,1 -3,0 -5,-1 -7,-2z"/>
   <path fill="#204485" fill-rule="nonzero" d="M616 266c1,-1 1,-2 1,-4 0,-2 0,-3 -1,-4 -1,-1 -2,-1 -3,-1 -1,0 -2,0 -3,1 -1,1 -1,2 -1,4 0,2 0,3 1,4 1,1 2,1 3,1 1,0 2,0 3,-1zm1 18c1,0 2,-1 2,-2 1,-1 1,-1 1,-2 0,-1 0,-2 -1,-2 -1,0 -2,-1 -3,-1l-4 0c-1,0 -2,0 -3,0 -1,1 -2,2 -2,3 0,1 1,2 2,3 1,1 3,1 5,1 1,0 2,0 3,-1zm-11 2c-2,-1 -3,-3 -3,-5 0,-1 0,-2 1,-3 1,-1 1,-2 2,-2l0 0c-1,-1 -2,-2 -2,-4 0,-1 0,-2 1,-2 0,-1 1,-1 2,-2l0 0c-1,-1 -2,-2 -2,-3 -1,-1 -1,-2 -1,-4 0,-2 0,-3 1,-4 1,-1 2,-2 3,-3 1,-1 3,-1 4,-1 1,0 2,0 3,1l8 0 0 4 -4 0c0,1 1,1 1,2 0,1 0,2 0,2 0,2 -1,4 -2,6 -2,1 -4,2 -6,2 -1,0 -2,0 -3,-1 0,0 -1,1 -1,1 0,0 0,1 0,1 0,1 0,1 1,2 1,0 2,1 3,1l4 0c3,0 5,0 6,1 1,1 2,2 2,4 0,1 0,3 -1,4 -1,1 -2,2 -4,3 -2,1 -4,1 -6,1 -3,0 -5,-1 -7,-2z"/>
   <path fill="#204485" fill-rule="nonzero" d="M638 274c1,0 2,-1 3,-2l0 -6c-3,0 -6,1 -7,2 -1,1 -2,2 -2,3 0,1 0,2 1,2 1,1 2,1 3,1 1,0 2,0 3,-1zm-9 3c-1,-1 -2,-3 -2,-5 0,-2 1,-4 3,-6 2,-1 6,-2 10,-3 0,-3 -2,-5 -4,-5 -2,0 -4,1 -7,2l-2 -3c3,-2 6,-3 9,-3 3,0 5,1 6,3 1,2 2,4 2,7l0 14 -4 0 0 -3 0 0c-3,2 -5,3 -7,3 -2,0 -4,-1 -5,-2z"/>
   <path fill="#204485" fill-rule="nonzero" d="M652 255l4 0 0 4 0 0c1,-1 2,-3 3,-3 1,-1 2,-1 4,-1 1,0 2,0 3,0l-1 4c-1,0 -2,0 -2,0 -1,0 -2,0 -3,1 -1,1 -2,2 -3,4l0 14 -5 0 0 -23z"/>
   <path fill="#204485" fill-rule="nonzero" d="M678 274c1,0 2,-1 3,-2l0 -6c-3,0 -6,1 -7,2 -1,1 -2,2 -2,3 0,1 0,2 1,2 1,1 2,1 3,1 1,0 2,0 3,-1zm-9 3c-1,-1 -2,-3 -2,-5 0,-2 1,-4 3,-6 2,-1 6,-2 10,-3 0,-3 -2,-5 -4,-5 -2,0 -4,1 -7,2l-2 -3c3,-2 6,-3 9,-3 3,0 5,1 6,3 1,2 2,4 2,7l0 14 -4 0 0 -3 0 0c-3,2 -5,3 -7,3 -2,0 -4,-1 -5,-2z"/>
   <path fill="#204485" fill-rule="nonzero" d="M699 273l3 -2c1,2 3,3 5,3 2,0 3,0 3,-1 1,-1 1,-3 1,-5l0 -21 5 0 0 21c0,3 -1,5 -2,7 -1,2 -4,3 -7,3 -4,0 -7,-2 -9,-5z"/>
   <path fill="#204485" fill-rule="nonzero" d="M734 274c1,0 2,-1 3,-2l0 -6c-3,0 -6,1 -7,2 -1,1 -2,2 -2,3 0,1 0,2 1,2 1,1 2,1 3,1 1,0 2,0 3,-1zm-9 3c-1,-1 -2,-3 -2,-5 0,-2 1,-4 3,-6 2,-1 6,-2 11,-3 0,-3 -2,-5 -4,-5 -2,0 -4,1 -7,2l-2 -3c3,-2 6,-3 9,-3 3,0 5,1 6,3 1,2 2,4 2,7l0 14 -4 0 0 -3 0 0c-3,2 -5,3 -7,3 -2,0 -4,-1 -5,-2z"/>
   <path fill="#204485" fill-rule="nonzero" d="M749 255l4 0 0 3 0 0c1,-1 2,-2 3,-3 1,-1 2,-1 4,-1 3,0 5,1 6,4 1,-1 3,-2 4,-3 1,-1 2,-1 4,-1 2,0 4,1 5,2 1,2 2,4 2,7l0 15 -5 0 0 -14c0,-2 0,-3 -1,-4 -1,-1 -2,-1 -3,-1 -2,0 -3,1 -5,3l0 16 -5 0 0 -14c0,-2 0,-3 -1,-4 -1,-1 -2,-1 -3,-1 -2,0 -3,1 -5,3l0 16 -5 0 0 -23z"/>
   <path fill="#204485" fill-rule="nonzero" d="M788 255l5 0 0 23 -5 0 0 -23zm0 -5c-1,-1 -1,-1 -1,-2 0,-1 0,-1 1,-2 1,-1 1,-1 2,-1 1,0 2,0 2,1 1,1 1,1 1,2 0,1 0,2 -1,2 -1,1 -1,1 -2,1 -1,0 -2,0 -2,-1z"/>
   <path fill="#204485" fill-rule="nonzero" d="M800 255l4 0 0 3 0 0c1,-1 2,-2 4,-3 1,-1 3,-1 4,-1 5,0 7,3 7,9l0 15 -5 0 0 -14c0,-2 0,-3 -1,-4 -1,-1 -2,-1 -3,-1 -1,0 -2,0 -3,1 -1,0 -2,1 -3,2l0 16 -5 0 0 -23z"/>
   <path fill="#204485" fill-rule="nonzero" d="M836 274c1,0 2,-1 3,-2l0 -6c-3,0 -6,1 -7,2 -1,1 -2,2 -2,3 0,1 0,2 1,2 1,1 2,1 3,1 1,0 2,0 3,-1zm-9 3c-1,-1 -2,-3 -2,-5 0,-2 1,-4 3,-6 2,-1 6,-2 11,-3 0,-3 -2,-5 -4,-5 -2,0 -4,1 -7,2l-2 -3c3,-2 6,-3 9,-3 3,0 5,1 6,3 1,2 2,4 2,7l0 14 -4 0 0 -3 0 0c-3,2 -5,3 -7,3 -2,0 -4,-1 -5,-2z"/>
   <path fill="#204485" fill-rule="nonzero" d="M850 255l4 0 0 3 0 0c1,-1 2,-2 4,-3 1,-1 3,-1 4,-1 5,0 7,3 7,9l0 15 -5 0 0 -14c0,-2 0,-3 -1,-4 -1,-1 -2,-1 -3,-1 -1,0 -2,0 -3,1 -1,0 -2,1 -3,2l0 16 -5 0 0 -23z"/>
   <path fill="#204485" fill-rule="nonzero" d="M889 277c-2,-1 -4,-2 -5,-3l3 -3c1,1 2,2 4,3 1,1 3,1 4,1 2,0 3,0 4,-1 1,-1 2,-2 2,-3 0,-1 0,-2 -1,-2 0,-1 -1,-1 -2,-1 -1,0 -2,-1 -3,-1l-4 -2c-4,-2 -6,-4 -6,-8 0,-2 0,-3 1,-4 1,-1 2,-2 4,-3 2,-1 3,-1 5,-1 2,0 4,0 5,1 2,1 3,2 4,3l-2 3c-2,-2 -4,-3 -7,-3 -2,0 -3,0 -4,1 -1,1 -1,2 -1,3 0,1 0,2 1,2 0,1 1,1 2,1 1,0 2,1 3,1l4 2c2,1 4,2 5,3 1,1 2,3 2,5 0,2 0,3 -1,5 -1,1 -2,2 -4,3 -2,1 -4,1 -6,1 -2,0 -4,0 -6,-1z"/>
   <path fill="#204485" fill-rule="nonzero" d="M925 272c1,-1 2,-3 2,-6 0,-2 -1,-4 -2,-6 -1,-2 -3,-2 -4,-2 -2,0 -3,1 -4,2 -1,2 -2,3 -2,6 0,2 1,4 2,6 1,1 3,2 4,2 2,0 3,-1 4,-2zm-10 5c-2,-1 -3,-2 -4,-4 -1,-2 -1,-4 -1,-6 0,-2 0,-5 1,-6 1,-2 2,-3 4,-4 2,-1 3,-1 5,-1 2,0 4,1 5,1 2,1 3,2 4,4 1,2 1,4 1,6 0,2 -1,5 -1,6 -1,2 -2,3 -4,4 -2,1 -3,1 -5,1 -2,0 -4,0 -5,-1z"/>
   <path fill="#204485" fill-rule="nonzero" d="M938 278c-2,-1 -3,-1 -4,-2l2 -3c1,1 2,2 3,2 1,0 2,1 3,1 1,0 2,0 3,-1 1,-1 1,-1 1,-2 0,-1 0,-2 -1,-2 -1,-1 -2,-1 -4,-2 -2,-1 -4,-2 -5,-3 -1,-1 -2,-2 -2,-4 0,-2 1,-4 2,-5 1,-1 3,-2 6,-2 3,0 5,1 7,3l-2 3c-1,-1 -2,-1 -3,-2 -1,0 -2,-1 -3,-1 -1,0 -2,0 -3,1 -1,1 -1,1 -1,2 0,1 0,1 1,2 0,0 1,1 2,1 1,0 2,1 3,1 1,1 3,1 3,2 1,1 2,1 2,2 1,1 1,2 1,3 0,1 0,3 -1,4 -1,1 -2,2 -3,3 -1,1 -3,1 -5,1 -2,0 -3,0 -5,-1z"/>
   <path fill="#204485" fill-rule="nonzero" d="M957 255l5 0 0 23 -5 0 0 -23zm0 -5c-1,-1 -1,-1 -1,-2 0,-1 0,-1 1,-2 1,-1 1,-1 2,-1 1,0 2,0 2,1 1,1 1,1 1,2 0,1 0,2 -1,2 -1,1 -1,1 -2,1 -1,0 -2,0 -2,-1z"/>
   <path fill="#204485" fill-rule="nonzero" d="M978 274c1,0 2,-1 3,-2l0 -6c-3,0 -6,1 -7,2 -1,1 -2,2 -2,3 0,1 0,2 1,2 1,1 2,1 3,1 1,0 2,0 3,-1zm-9 3c-1,-1 -2,-3 -2,-5 0,-2 1,-4 3,-6 2,-1 6,-2 10,-3 0,-3 -2,-5 -4,-5 -2,0 -4,1 -7,2l-2 -3c3,-2 6,-3 9,-3 3,0 5,1 6,3 1,2 2,4 2,7l0 14 -4 0 0 -3 0 0c-3,2 -5,3 -7,3 -2,0 -4,-1 -5,-2z"/>
   <path fill="#204485" fill-rule="nonzero" d="M994 277c-1,-1 -1,-2 -1,-4l0 -28 5 0 0 28c0,1 0,1 0,1 0,0 0,0 1,0 0,0 1,0 1,0l1 4c-1,0 -2,0 -3,0 -2,0 -3,-1 -4,-2z"/>
  </g>
 </g>
</svg>
