<?xml version="1.0" encoding="UTF-8"?>
<!DOCTYPE svg PUBLIC "-//W3C//DTD SVG 1.1//EN" "http://www.w3.org/Graphics/SVG/1.1/DTD/svg11.dtd">
<!-- Creator: CorelDRAW 2019 (64-Bit) -->
<svg xmlns="http://www.w3.org/2000/svg" xml:space="preserve" width="1217px" height="500px" version="1.1" shape-rendering="geometricPrecision" text-rendering="geometricPrecision" image-rendering="optimizeQuality" fill-rule="evenodd" clip-rule="evenodd"
viewBox="0 0 1217 500"
 xmlns:xlink="http://www.w3.org/1999/xlink"
 xmlns:xodm="http://www.corel.com/coreldraw/odm/2003">
 <defs>
   <linearGradient id="id0" gradientUnits="userSpaceOnUse" x1="215" y1="303" x2="273" y2="303">
    <stop offset="0" stop-opacity="1" stop-color="#FEFEFE"/>
    <stop offset="1" stop-opacity="1" stop-color="#EEEEEF"/>
   </linearGradient>
 </defs>
 <g id="Layer_x0020_1">
  <metadata id="CorelCorpID_0Corel-Layer"/>
  <path fill="#FEFEFE" fill-rule="nonzero" d="M526 230c23,0 40,-12 40,-34l0 0c0,-19 -12,-27 -34,-33 -19,-5 -23,-7 -23,-14l0 0c0,-5 5,-9 14,-9 7,0 15,3 23,7 2,1 4,2 6,2 6,0 11,-5 11,-11 0,-5 -3,-8 -5,-9 -10,-6 -21,-10 -34,-10 -22,0 -38,13 -38,33l0 0c0,22 14,28 36,33 18,5 22,8 22,14l0 0c0,6 -6,10 -16,10 -11,0 -20,-4 -28,-10 -2,-1 -4,-2 -7,-2 -6,0 -11,5 -11,11 0,4 2,7 4,9 12,9 27,13 41,13z"/>
  <path id="1" fill="#FEFEFE" fill-rule="nonzero" d="M603 180c2,-11 8,-18 18,-18 10,0 16,7 18,18l-36 0zm49 40c2,-2 3,-4 3,-7 0,-5 -4,-9 -9,-9 -2,0 -4,1 -6,2 -5,4 -10,6 -17,6 -11,0 -18,-6 -20,-16l47 0c6,0 11,-5 11,-11 0,-17 -12,-40 -40,-40 -24,0 -41,20 -41,43l0 0c0,25 18,43 43,43 12,0 22,-4 29,-10z"/>
  <path id="2" fill="#FEFEFE" fill-rule="nonzero" d="M679 217c0,7 5,12 12,12 7,0 12,-5 12,-12l0 -36c0,-11 6,-17 15,-17 9,0 14,6 14,17l0 36c0,7 5,12 12,12 7,0 12,-5 12,-12l0 -43c0,-19 -10,-31 -28,-31 -12,0 -19,6 -24,13l0 -31c0,-7 -5,-12 -12,-12 -7,0 -12,5 -12,12l0 91z"/>
  <path id="3" fill="#FEFEFE" fill-rule="nonzero" d="M799 230c11,0 19,-4 25,-11l0 0c0,5 4,10 11,10 6,0 11,-5 11,-11l0 -38c0,-11 -3,-20 -9,-27 -6,-6 -15,-9 -28,-9 -11,0 -19,2 -27,4 -4,1 -6,5 -6,9 0,5 4,10 10,10 1,0 2,0 3,-1 5,-1 10,-2 16,-2 12,0 18,5 18,15l0 1c-6,-2 -12,-3 -20,-3 -20,0 -33,8 -33,27l0 0c0,16 13,25 29,25zm7 -16c-8,0 -13,-4 -13,-10l0 0c0,-7 6,-11 16,-11 6,0 11,1 15,3l0 4c0,9 -7,15 -18,15z"/>
  <path id="4" fill="#FEFEFE" fill-rule="nonzero" d="M894 229c5,0 9,-1 13,-2 3,-1 6,-5 6,-9 0,-5 -5,-10 -10,-10 0,0 -2,0 -3,0 -5,0 -8,-3 -8,-8l0 -36 10 0c6,0 10,-4 10,-10 0,-6 -5,-10 -10,-10l-10 0 0 -10c0,-7 -5,-12 -12,-12 -7,0 -12,5 -12,12l0 10 -1 0c-6,0 -10,4 -10,10 0,6 5,10 10,10l1 0 0 39c0,19 10,25 24,25z"/>
  <path fill="#FEFEFE" fill-rule="nonzero" d="M487 372c0,7 5,12 12,12l40 0c24,0 41,-10 41,-30l0 0c0,-15 -8,-22 -20,-27 8,-4 14,-11 14,-23l0 0c0,-7 -2,-13 -7,-18 -6,-6 -16,-10 -28,-10l-38 0c-7,0 -12,5 -12,12l0 85zm23 -53l0 -23 24 0c10,0 16,4 16,11l0 0c0,8 -7,11 -17,11l-22 0zm0 44l0 -24 28 0c12,0 18,5 18,12l0 0c0,8 -6,12 -17,12l-28 0z"/>
  <path id="1" fill="#FEFEFE" fill-rule="nonzero" d="M616 336c2,-11 8,-18 18,-18 10,0 16,7 18,18l-36 0zm49 40c2,-2 3,-4 3,-7 0,-5 -4,-9 -9,-9 -2,0 -4,1 -6,2 -5,4 -10,6 -17,6 -11,0 -18,-6 -20,-16l47 0c6,0 11,-4 11,-11 0,-17 -12,-40 -40,-40 -24,0 -41,20 -41,43l0 0c0,25 18,43 43,43 12,0 22,-4 29,-10z"/>
  <path id="2" fill="#FEFEFE" fill-rule="nonzero" d="M691 373c0,7 5,12 12,12 7,0 12,-5 12,-12l0 -22c0,-17 7,-26 19,-29 5,-1 9,-5 9,-11 0,-7 -4,-11 -11,-11 -7,0 -13,7 -16,16l0 -4c0,-7 -5,-12 -12,-12 -7,0 -12,5 -12,12l0 61z"/>
  <path id="3" fill="#FEFEFE" fill-rule="nonzero" d="M785 386c18,0 32,-8 32,-27l0 0c0,-15 -13,-21 -25,-25 -9,-3 -17,-5 -17,-10l0 0c0,-3 3,-6 9,-6 5,0 11,2 18,5 2,1 3,1 4,1 5,0 9,-4 9,-9 0,-4 -2,-7 -6,-9 -8,-4 -17,-6 -26,-6 -17,0 -30,9 -30,26l0 0c0,16 13,22 25,25 9,3 17,5 17,10l0 0c0,4 -3,6 -10,6 -7,0 -15,-2 -22,-7 -1,-1 -3,-1 -5,-1 -5,0 -9,4 -9,9 0,4 2,7 5,8 10,7 21,9 31,9z"/>
  <path id="4" fill="#FEFEFE" fill-rule="nonzero" d="M858 386c11,0 19,-4 25,-11l0 0c0,5 4,10 11,10 6,0 11,-5 11,-11l0 -38c0,-11 -3,-20 -9,-27 -6,-6 -15,-9 -28,-9 -11,0 -19,2 -27,4 -4,1 -6,5 -6,9 0,5 4,10 10,10 1,0 2,0 3,-1 4,-1 10,-2 16,-2 12,0 18,5 18,15l0 1c-6,-2 -12,-3 -20,-3 -20,0 -33,8 -33,27l0 0c0,16 13,25 29,25zm7 -16c-8,0 -13,-4 -13,-10l0 0c0,-7 6,-11 16,-11 6,0 11,1 15,3l0 4c0,9 -7,15 -18,15z"/>
  <path id="5" fill="#FEFEFE" fill-rule="nonzero" d="M926 373c0,7 5,12 12,12 7,0 12,-5 12,-12l0 -36c0,-11 5,-17 14,-17 9,0 14,6 14,17l0 36c0,7 5,12 12,12 7,0 12,-5 12,-12l0 -36c0,-11 5,-17 14,-17 9,0 14,6 14,17l0 36c0,7 5,12 12,12 7,0 12,-5 12,-12l0 -43c0,-20 -11,-31 -28,-31 -11,0 -20,5 -27,13 -4,-8 -13,-13 -23,-13 -12,0 -19,6 -24,13l0 -1c0,-7 -5,-12 -12,-12 -7,0 -12,5 -12,12l0 61z"/>
  <path id="6" fill="#FEFEFE" fill-rule="nonzero" d="M1097 386c11,0 19,-4 25,-11l0 0c0,5 5,10 11,10 6,0 11,-5 11,-11l0 -38c0,-11 -3,-20 -9,-27 -6,-6 -15,-9 -28,-9 -11,0 -19,2 -27,4 -4,1 -6,5 -6,9 0,5 4,10 10,10 1,0 2,0 3,-1 5,-1 10,-2 16,-2 12,0 18,5 18,15l0 1c-6,-2 -12,-3 -20,-3 -20,0 -33,8 -33,27l0 0c0,16 13,25 29,25zm7 -16c-8,0 -13,-4 -13,-10l0 0c0,-7 6,-11 16,-11 6,0 11,1 15,3l0 4c0,9 -7,15 -18,15z"/>
  <path fill="#EEEEEF" d="M323 178c24,-27 59,-8 64,24 7,42 -29,110 -52,138 37,-35 66,-77 75,-125 4,-22 -1,-41 -13,-55 -12,-14 -29,-18 -45,-12 -12,5 -31,13 -30,30l0 0z"/>
  <path fill="#EEEEEF" d="M128 308c-21,-28 -35,-59 -34,-92 1,-40 31,-67 70,-51 23,9 48,30 72,28 6,0 12,-2 17,-5 13,-7 23,-20 25,-34 -24,20 -45,9 -67,-6 -17,-12 -31,-24 -58,-28 -28,-4 -56,7 -72,29 -18,25 -16,67 -4,93 10,23 22,55 52,66l0 0z"/>
  <path fill="#EEEEEF" d="M221 419c55,-27 81,-79 80,-135 -11,38 -37,65 -57,75 -4,-5 -16,-14 -30,-22 -48,-25 -77,-41 -95,-82 9,43 50,80 82,106 16,13 30,36 20,58l0 0z"/>
  <path fill="#FEFEFE" d="M80 149c-2,2 -3,5 -5,8 -40,72 23,209 99,251 36,20 48,-11 20,-33 -41,-33 -93,-90 -114,-139 -11,-26 -18,-62 -1,-87l0 0z"/>
  <path fill="#FEFEFE" d="M221 419c47,-21 123,-92 131,-146 5,-36 -39,-49 -48,-3 -1,5 -2,9 -3,14 -11,48 -38,114 -80,135l0 0z"/>
  <path fill="#FEFEFE" d="M355 152c16,-6 32,-4 43,8 -20,-25 -59,-32 -91,-4 -18,15 -28,32 -43,42 -20,13 -48,15 -69,4 -22,-11 -37,13 -17,28 25,20 59,19 87,4 23,-13 41,-35 60,-55 9,-10 19,-21 32,-26l0 0z"/>
  <path fill="url(#id0)" d="M244 333c16,0 29,-13 29,-29 0,-16 -13,-29 -29,-29 -16,0 -29,13 -29,29 0,16 13,29 29,29l0 0z"/>
 </g>
</svg>
