<?xml version="1.0" encoding="UTF-8"?>
<!DOCTYPE svg PUBLIC "-//W3C//DTD SVG 1.1//EN" "http://www.w3.org/Graphics/SVG/1.1/DTD/svg11.dtd">
<!-- Creator: CorelDRAW 2019 (64-Bit) -->
<svg xmlns="http://www.w3.org/2000/svg" xml:space="preserve" width="1000px" height="411px" version="1.1" shape-rendering="geometricPrecision" text-rendering="geometricPrecision" image-rendering="optimizeQuality" fill-rule="evenodd" clip-rule="evenodd"
viewBox="0 0 1000 411"
 xmlns:xlink="http://www.w3.org/1999/xlink"
 xmlns:xodm="http://www.corel.com/coreldraw/odm/2003">
 <defs>
   <linearGradient id="id0" gradientUnits="userSpaceOnUse" x1="308" y1="235" x2="285" y2="101">
    <stop offset="0" stop-opacity="1" stop-color="#579F39"/>
    <stop offset="0.490196" stop-opacity="1" stop-color="#2F863F"/>
    <stop offset="1" stop-opacity="1" stop-color="#086D45"/>
   </linearGradient>
   <linearGradient id="id1" gradientUnits="userSpaceOnUse" x1="164" y1="107" x2="69" y2="247">
    <stop offset="0" stop-opacity="1" stop-color="#579F39"/>
    <stop offset="0.490196" stop-opacity="1" stop-color="#2F863F"/>
    <stop offset="1" stop-opacity="1" stop-color="#086D45"/>
   </linearGradient>
   <linearGradient id="id2" gradientUnits="userSpaceOnUse" x1="69" y1="226" x2="164" y2="226">
    <stop offset="0" stop-opacity="1" stop-color="#7CB834"/>
    <stop offset="1" stop-opacity="1" stop-color="#A3D22E"/>
   </linearGradient>
   <linearGradient id="id3" gradientUnits="userSpaceOnUse" x1="306" y1="172" x2="200" y2="343">
    <stop offset="0" stop-opacity="1" stop-color="#579F39"/>
    <stop offset="0.490196" stop-opacity="1" stop-color="#2F863F"/>
    <stop offset="1" stop-opacity="1" stop-color="#086D45"/>
   </linearGradient>
   <linearGradient id="id4" gradientUnits="userSpaceOnUse" x1="331" y1="133" x2="159" y2="183">
    <stop offset="0" stop-opacity="1" stop-color="#7CB834"/>
    <stop offset="1" stop-opacity="1" stop-color="#A3D22E"/>
   </linearGradient>
   <linearGradient id="id5" gradientUnits="userSpaceOnUse" x1="176" y1="249" x2="224" y2="249">
    <stop offset="0" stop-opacity="1" stop-color="#579F39"/>
    <stop offset="0.490196" stop-opacity="1" stop-color="#2F863F"/>
    <stop offset="1" stop-opacity="1" stop-color="#086D45"/>
   </linearGradient>
 </defs>
 <g id="Layer_x0020_1">
  <metadata id="CorelCorpID_0Corel-Layer"/>
  <path fill="#086D45" fill-rule="nonzero" d="M432 189c19,0 33,-10 33,-28l0 0c0,-16 -10,-22 -28,-27 -15,-4 -19,-6 -19,-12l0 0c0,-4 4,-8 11,-8 6,0 12,2 19,6 2,1 3,1 5,1 5,0 9,-4 9,-9 0,-4 -2,-7 -4,-8 -8,-5 -17,-8 -28,-8 -18,0 -31,11 -31,27l0 0c0,18 12,23 30,27 15,4 18,6 18,11l0 0c0,5 -5,8 -13,8 -9,0 -16,-3 -23,-8 -1,-1 -3,-2 -6,-2 -5,0 -9,4 -9,9 0,3 2,6 4,7 10,7 22,11 34,11z"/>
  <path id="1" fill="#086D45" fill-rule="nonzero" d="M495 148c2,-9 7,-15 15,-15 8,0 13,6 14,15l-29 0zm40 33c1,-1 3,-3 3,-6 0,-4 -3,-8 -8,-8 -2,0 -3,1 -5,2 -4,3 -8,5 -14,5 -9,0 -15,-5 -17,-13l38 0c5,0 9,-4 9,-9 0,-14 -10,-33 -33,-33 -20,0 -34,16 -34,36l0 0c0,21 15,35 36,35 10,0 18,-3 24,-8z"/>
  <path id="2" fill="#086D45" fill-rule="nonzero" d="M558 178c0,5 4,10 10,10 5,0 10,-4 10,-10l0 -29c0,-9 5,-14 12,-14 7,0 12,5 12,14l0 29c0,5 4,10 10,10 5,0 10,-4 10,-10l0 -35c0,-16 -9,-25 -23,-25 -10,0 -16,5 -20,11l0 -25c0,-5 -4,-10 -10,-10 -5,0 -10,4 -10,10l0 75z"/>
  <path id="3" fill="#086D45" fill-rule="nonzero" d="M656 189c9,0 16,-3 21,-9l0 0c0,4 4,8 9,8 5,0 9,-4 9,-9l0 -31c0,-9 -2,-17 -7,-22 -5,-5 -12,-8 -23,-8 -9,0 -16,1 -22,4 -3,1 -5,4 -5,8 0,4 4,8 8,8 1,0 2,0 3,-1 4,-1 8,-2 13,-2 10,0 15,4 15,12l0 1c-5,-2 -10,-3 -17,-3 -16,0 -28,7 -28,22l0 0c0,14 11,21 23,21zm6 -13c-6,0 -11,-3 -11,-8l0 0c0,-6 5,-9 13,-9 5,0 9,1 12,3l0 3c0,7 -6,12 -15,12z"/>
  <path id="4" fill="#086D45" fill-rule="nonzero" d="M735 189c4,0 8,-1 11,-2 3,-1 5,-4 5,-7 0,-4 -4,-8 -8,-8 0,0 -2,0 -2,0 -4,0 -6,-2 -6,-7l0 -29 9 0c5,0 8,-4 8,-8 0,-5 -4,-8 -8,-8l-9 0 0 -9c0,-5 -4,-10 -10,-10 -5,0 -10,4 -10,10l0 9 -1 0c-5,0 -8,4 -8,8 0,5 4,8 8,8l1 0 0 32c0,16 8,21 20,21z"/>
  <path fill="#086D45" fill-rule="nonzero" d="M400 306c0,5 4,10 10,10l33 0c20,0 33,-8 33,-24l0 0c0,-12 -6,-18 -17,-22 6,-4 12,-9 12,-19l0 0c0,-6 -2,-11 -6,-15 -5,-5 -13,-8 -23,-8l-32 0c-5,0 -10,4 -10,10l0 70zm19 -43l0 -19 19 0c8,0 13,3 13,9l0 0c0,7 -5,9 -14,9l-18 0zm0 36l0 -20 23 0c10,0 15,4 15,10l0 0c0,7 -5,10 -14,10l-23 0z"/>
  <path id="1" fill="#086D45" fill-rule="nonzero" d="M506 276c2,-9 7,-15 15,-15 8,0 13,6 14,15l-29 0zm40 33c1,-1 3,-3 3,-6 0,-4 -3,-8 -8,-8 -2,0 -3,1 -5,2 -4,3 -8,5 -14,5 -9,0 -15,-5 -17,-13l38 0c5,0 9,-4 9,-9 0,-14 -10,-33 -33,-33 -20,0 -34,16 -34,36l0 0c0,21 15,35 36,35 10,0 18,-3 24,-8z"/>
  <path id="2" fill="#086D45" fill-rule="nonzero" d="M568 307c0,5 4,10 10,10 5,0 10,-4 10,-10l0 -18c0,-14 5,-21 15,-24 4,-1 7,-4 7,-9 0,-5 -3,-9 -9,-9 -6,0 -10,6 -13,13l0 -3c0,-5 -4,-10 -10,-10 -5,0 -10,4 -10,10l0 50z"/>
  <path id="3" fill="#086D45" fill-rule="nonzero" d="M645 317c15,0 26,-7 26,-22l0 0c0,-12 -11,-17 -21,-20 -7,-3 -14,-4 -14,-8l0 0c0,-3 2,-5 7,-5 4,0 9,2 15,4 1,1 2,1 4,1 4,0 8,-3 8,-8 0,-3 -2,-6 -5,-7 -7,-3 -14,-5 -21,-5 -14,0 -25,8 -25,22l0 0c0,13 11,18 20,21 8,2 14,4 14,8l0 0c0,3 -3,5 -8,5 -5,0 -12,-2 -18,-6 -1,-1 -2,-1 -4,-1 -4,0 -8,3 -8,8 0,3 2,5 4,7 8,5 17,8 26,8z"/>
  <path id="4" fill="#086D45" fill-rule="nonzero" d="M705 317c9,0 16,-3 21,-9l0 0c0,4 4,8 9,8 5,0 9,-4 9,-9l0 -31c0,-9 -2,-17 -7,-22 -5,-5 -12,-8 -23,-8 -9,0 -16,1 -22,4 -3,1 -5,4 -5,8 0,4 4,8 8,8 1,0 2,0 3,-1 4,-1 8,-2 13,-2 10,0 15,4 15,12l0 1c-5,-2 -10,-3 -17,-3 -16,0 -28,7 -28,22l0 0c0,14 11,21 23,21zm6 -13c-6,0 -11,-3 -11,-8l0 0c0,-6 5,-9 13,-9 5,0 9,1 12,3l0 3c0,7 -6,12 -15,12z"/>
  <path id="5" fill="#086D45" fill-rule="nonzero" d="M761 307c0,5 4,10 10,10 5,0 10,-4 10,-10l0 -29c0,-9 4,-14 12,-14 7,0 11,5 11,14l0 29c0,5 4,10 10,10 5,0 10,-4 10,-10l0 -29c0,-9 4,-14 12,-14 7,0 11,5 11,14l0 29c0,5 4,10 10,10 5,0 10,-4 10,-10l0 -36c0,-16 -9,-25 -23,-25 -9,0 -16,4 -22,11 -4,-7 -10,-11 -19,-11 -10,0 -16,5 -20,11l0 -1c0,-5 -4,-10 -10,-10 -5,0 -10,4 -10,10l0 50z"/>
  <path id="6" fill="#086D45" fill-rule="nonzero" d="M901 317c9,0 16,-3 21,-9l0 0c0,4 4,8 9,8 5,0 9,-4 9,-9l0 -31c0,-9 -2,-17 -7,-22 -5,-5 -12,-8 -23,-8 -9,0 -16,1 -22,4 -3,1 -5,4 -5,8 0,4 4,8 8,8 1,0 2,0 3,-1 4,-1 8,-2 13,-2 10,0 15,4 15,12l0 1c-5,-2 -10,-3 -17,-3 -16,0 -28,7 -28,22l0 0c0,14 11,21 23,21zm6 -13c-6,0 -11,-3 -11,-8l0 0c0,-6 5,-9 13,-9 5,0 9,1 12,3l0 3c0,7 -6,12 -15,12z"/>
  <path fill="url(#id0)" d="M265 147c20,-22 48,-6 53,20 6,34 -24,91 -43,113 30,-29 54,-63 62,-103 4,-18 -1,-34 -10,-46 -10,-11 -24,-15 -37,-10 -10,4 -25,11 -24,25l0 0z"/>
  <path fill="url(#id1)" d="M105 253c-18,-23 -29,-49 -28,-75 1,-33 25,-55 58,-42 19,8 39,25 59,23 5,0 10,-2 14,-4 11,-5 19,-16 20,-28 -20,17 -37,7 -55,-5 -14,-10 -25,-20 -48,-23 -23,-4 -46,6 -60,24 -15,20 -13,55 -4,76 8,19 18,45 43,55l0 0z"/>
  <path fill="#086D45" d="M181 345c45,-22 66,-65 66,-111 -9,31 -30,54 -47,62 -3,-4 -13,-12 -25,-18 -39,-20 -63,-34 -78,-67 7,36 41,66 68,87 13,10 24,30 16,47l0 0z"/>
  <path fill="url(#id2)" d="M66 122c-1,2 -3,4 -4,6 -33,59 19,172 82,206 30,16 39,-9 16,-27 -33,-27 -76,-74 -93,-114 -9,-21 -15,-51 0,-71l0 0z"/>
  <path fill="url(#id3)" d="M181 345c38,-17 101,-76 108,-120 4,-30 -32,-40 -39,-3 -1,4 -2,8 -3,12 -9,40 -31,94 -66,111l0 0z"/>
  <path fill="url(#id4)" d="M292 125c13,-5 26,-3 35,7 -17,-21 -48,-27 -75,-3 -14,13 -23,26 -36,34 -16,11 -40,12 -57,4 -18,-9 -30,10 -14,23 21,17 49,16 71,3 19,-11 34,-29 49,-46 7,-8 16,-18 26,-22l0 0z"/>
  <path fill="url(#id5)" d="M200 273c13,0 24,-11 24,-24 0,-13 -11,-24 -24,-24 -13,0 -24,11 -24,24 0,13 11,24 24,24l0 0z"/>
 </g>
</svg>
