<svg width="36" height="36" viewBox="0 0 36 36" fill="none" xmlns="http://www.w3.org/2000/svg">
<path d="M33.1875 3.9375H29.8125V2.8125C29.8125 2.36495 29.6347 1.93572 29.3182 1.61926C29.0018 1.30279 28.5726 1.125 28.125 1.125C27.6774 1.125 27.2482 1.30279 26.9318 1.61926C26.6153 1.93572 26.4375 2.36495 26.4375 2.8125V3.9375H23.0625V2.8125C23.0625 2.36495 22.8847 1.93572 22.5682 1.61926C22.2518 1.30279 21.8226 1.125 21.375 1.125C20.9274 1.125 20.4982 1.30279 20.1818 1.61926C19.8653 1.93572 19.6875 2.36495 19.6875 2.8125V3.9375H16.3125V2.8125C16.3125 2.36495 16.1347 1.93572 15.8182 1.61926C15.5018 1.30279 15.0726 1.125 14.625 1.125C14.1774 1.125 13.7482 1.30279 13.4318 1.61926C13.1153 1.93572 12.9375 2.36495 12.9375 2.8125V3.9375H9.5625V2.8125C9.5625 2.36495 9.38471 1.93572 9.06824 1.61926C8.75178 1.30279 8.32255 1.125 7.875 1.125C7.42745 1.125 6.99822 1.30279 6.68176 1.61926C6.36529 1.93572 6.1875 2.36495 6.1875 2.8125V3.9375H2.8125C2.36495 3.9375 1.93572 4.11529 1.61926 4.43176C1.30279 4.74822 1.125 5.17745 1.125 5.625V14.0625C1.125 14.2117 1.18426 14.3548 1.28975 14.4602C1.39524 14.5657 1.53832 14.625 1.6875 14.625C1.83668 14.625 1.97976 14.5657 2.08525 14.4602C2.19074 14.3548 2.25 14.2117 2.25 14.0625V11.25H33.75V28.6875C33.75 28.8367 33.8093 28.9798 33.9148 29.0852C34.0202 29.1907 34.1633 29.25 34.3125 29.25C34.4617 29.25 34.6048 29.1907 34.7102 29.0852C34.8157 28.9798 34.875 28.8367 34.875 28.6875V5.625C34.875 5.17745 34.6972 4.74822 34.3807 4.43176C34.0643 4.11529 33.6351 3.9375 33.1875 3.9375ZM27.5625 2.8125C27.5625 2.66332 27.6218 2.52024 27.7273 2.41475C27.8327 2.30926 27.9758 2.25 28.125 2.25C28.2742 2.25 28.4173 2.30926 28.5227 2.41475C28.6282 2.52024 28.6875 2.66332 28.6875 2.8125V6.1875C28.6875 6.33668 28.6282 6.47976 28.5227 6.58525C28.4173 6.69074 28.2742 6.75 28.125 6.75C27.9758 6.75 27.8327 6.69074 27.7273 6.58525C27.6218 6.47976 27.5625 6.33668 27.5625 6.1875V2.8125ZM20.8125 2.8125C20.8125 2.66332 20.8718 2.52024 20.9773 2.41475C21.0827 2.30926 21.2258 2.25 21.375 2.25C21.5242 2.25 21.6673 2.30926 21.7727 2.41475C21.8782 2.52024 21.9375 2.66332 21.9375 2.8125V6.1875C21.9375 6.33668 21.8782 6.47976 21.7727 6.58525C21.6673 6.69074 21.5242 6.75 21.375 6.75C21.2258 6.75 21.0827 6.69074 20.9773 6.58525C20.8718 6.47976 20.8125 6.33668 20.8125 6.1875V2.8125ZM14.0625 2.8125C14.0625 2.66332 14.1218 2.52024 14.2273 2.41475C14.3327 2.30926 14.4758 2.25 14.625 2.25C14.7742 2.25 14.9173 2.30926 15.0227 2.41475C15.1282 2.52024 15.1875 2.66332 15.1875 2.8125V6.1875C15.1875 6.33668 15.1282 6.47976 15.0227 6.58525C14.9173 6.69074 14.7742 6.75 14.625 6.75C14.4758 6.75 14.3327 6.69074 14.2273 6.58525C14.1218 6.47976 14.0625 6.33668 14.0625 6.1875V2.8125ZM7.3125 2.8125C7.3125 2.66332 7.37176 2.52024 7.47725 2.41475C7.58274 2.30926 7.72582 2.25 7.875 2.25C8.02418 2.25 8.16726 2.30926 8.27275 2.41475C8.37824 2.52024 8.4375 2.66332 8.4375 2.8125V6.1875C8.4375 6.33668 8.37824 6.47976 8.27275 6.58525C8.16726 6.69074 8.02418 6.75 7.875 6.75C7.72582 6.75 7.58274 6.69074 7.47725 6.58525C7.37176 6.47976 7.3125 6.33668 7.3125 6.1875V2.8125ZM2.25 10.125V5.625C2.25 5.47582 2.30926 5.33274 2.41475 5.22725C2.52024 5.12176 2.66332 5.0625 2.8125 5.0625H6.1875V6.1875C6.1875 6.63505 6.36529 7.06428 6.68176 7.38074C6.99822 7.69721 7.42745 7.875 7.875 7.875C8.32255 7.875 8.75178 7.69721 9.06824 7.38074C9.38471 7.06428 9.5625 6.63505 9.5625 6.1875V5.0625H12.9375V6.1875C12.9375 6.63505 13.1153 7.06428 13.4318 7.38074C13.7482 7.69721 14.1774 7.875 14.625 7.875C15.0726 7.875 15.5018 7.69721 15.8182 7.38074C16.1347 7.06428 16.3125 6.63505 16.3125 6.1875V5.0625H19.6875V6.1875C19.6875 6.63505 19.8653 7.06428 20.1818 7.38074C20.4982 7.69721 20.9274 7.875 21.375 7.875C21.8226 7.875 22.2518 7.69721 22.5682 7.38074C22.8847 7.06428 23.0625 6.63505 23.0625 6.1875V5.0625H26.4375V6.1875C26.4375 6.63505 26.6153 7.06428 26.9318 7.38074C27.2482 7.69721 27.6774 7.875 28.125 7.875C28.5726 7.875 29.0018 7.69721 29.3182 7.38074C29.6347 7.06428 29.8125 6.63505 29.8125 6.1875V5.0625H33.1875C33.3367 5.0625 33.4798 5.12176 33.5852 5.22725C33.6907 5.33274 33.75 5.47582 33.75 5.625V10.125H2.25Z" fill="#04A04A"/>
<path d="M34.3125 30.375C34.1633 30.375 34.0202 30.4343 33.9148 30.5398C33.8093 30.6452 33.75 30.7883 33.75 30.9375V33.1875C33.75 33.3367 33.6907 33.4798 33.5852 33.5852C33.4798 33.6907 33.3367 33.75 33.1875 33.75H2.8125C2.66332 33.75 2.52024 33.6907 2.41475 33.5852C2.30926 33.4798 2.25 33.3367 2.25 33.1875V16.3125C2.25 16.1633 2.19074 16.0202 2.08525 15.9148C1.97976 15.8093 1.83668 15.75 1.6875 15.75C1.53832 15.75 1.39524 15.8093 1.28975 15.9148C1.18426 16.0202 1.125 16.1633 1.125 16.3125V33.1875C1.125 33.6351 1.30279 34.0643 1.61926 34.3807C1.93572 34.6972 2.36495 34.875 2.8125 34.875H33.1875C33.6351 34.875 34.0643 34.6972 34.3807 34.3807C34.6972 34.0643 34.875 33.6351 34.875 33.1875V30.9375C34.875 30.7883 34.8157 30.6452 34.7102 30.5398C34.6048 30.4343 34.4617 30.375 34.3125 30.375Z" fill="#04A04A"/>
<path d="M5.625 30.9375C5.625 31.0867 5.68426 31.2298 5.78975 31.3352C5.89524 31.4407 6.03832 31.5 6.1875 31.5H9.5625C9.71168 31.5 9.85476 31.4407 9.96025 31.3352C10.0657 31.2298 10.125 31.0867 10.125 30.9375V27.5625C10.125 27.4133 10.0657 27.2702 9.96025 27.1648C9.85476 27.0593 9.71168 27 9.5625 27H6.1875C6.03832 27 5.89524 27.0593 5.78975 27.1648C5.68426 27.2702 5.625 27.4133 5.625 27.5625V30.9375ZM6.75 28.125H9V30.375H6.75V28.125Z" fill="#04A04A"/>
<path d="M12.375 30.9375C12.375 31.0867 12.4343 31.2298 12.5398 31.3352C12.6452 31.4407 12.7883 31.5 12.9375 31.5H16.3125C16.4617 31.5 16.6048 31.4407 16.7102 31.3352C16.8157 31.2298 16.875 31.0867 16.875 30.9375V27.5625C16.875 27.4133 16.8157 27.2702 16.7102 27.1648C16.6048 27.0593 16.4617 27 16.3125 27H12.9375C12.7883 27 12.6452 27.0593 12.5398 27.1648C12.4343 27.2702 12.375 27.4133 12.375 27.5625V30.9375ZM13.5 28.125H15.75V30.375H13.5V28.125Z" fill="#04A04A"/>
<path d="M19.125 30.9375C19.125 31.0867 19.1843 31.2298 19.2898 31.3352C19.3952 31.4407 19.5383 31.5 19.6875 31.5H23.0625C23.2117 31.5 23.3548 31.4407 23.4602 31.3352C23.5657 31.2298 23.625 31.0867 23.625 30.9375V27.5625C23.625 27.4133 23.5657 27.2702 23.4602 27.1648C23.3548 27.0593 23.2117 27 23.0625 27H19.6875C19.5383 27 19.3952 27.0593 19.2898 27.1648C19.1843 27.2702 19.125 27.4133 19.125 27.5625V30.9375ZM20.25 28.125H22.5V30.375H20.25V28.125Z" fill="#04A04A"/>
<path d="M6.1875 24.75H9.5625C9.71168 24.75 9.85476 24.6907 9.96025 24.5852C10.0657 24.4798 10.125 24.3367 10.125 24.1875V20.8125C10.125 20.6633 10.0657 20.5202 9.96025 20.4148C9.85476 20.3093 9.71168 20.25 9.5625 20.25H6.1875C6.03832 20.25 5.89524 20.3093 5.78975 20.4148C5.68426 20.5202 5.625 20.6633 5.625 20.8125V24.1875C5.625 24.3367 5.68426 24.4798 5.78975 24.5852C5.89524 24.6907 6.03832 24.75 6.1875 24.75ZM6.75 21.375H9V23.625H6.75V21.375Z" fill="#04A04A"/>
<path d="M25.875 24.1875C25.875 24.3367 25.9343 24.4798 26.0398 24.5852C26.1452 24.6907 26.2883 24.75 26.4375 24.75H29.8125C29.9617 24.75 30.1048 24.6907 30.2102 24.5852C30.3157 24.4798 30.375 24.3367 30.375 24.1875V20.8125C30.375 20.6633 30.3157 20.5202 30.2102 20.4148C30.1048 20.3093 29.9617 20.25 29.8125 20.25H26.4375C26.2883 20.25 26.1452 20.3093 26.0398 20.4148C25.9343 20.5202 25.875 20.6633 25.875 20.8125V24.1875ZM27 21.375H29.25V23.625H27V21.375Z" fill="#04A04A"/>
<path d="M12.375 24.1875C12.375 24.3367 12.4343 24.4798 12.5398 24.5852C12.6452 24.6907 12.7883 24.75 12.9375 24.75H16.3125C16.4617 24.75 16.6048 24.6907 16.7102 24.5852C16.8157 24.4798 16.875 24.3367 16.875 24.1875V20.8125C16.875 20.6633 16.8157 20.5202 16.7102 20.4148C16.6048 20.3093 16.4617 20.25 16.3125 20.25H12.9375C12.7883 20.25 12.6452 20.3093 12.5398 20.4148C12.4343 20.5202 12.375 20.6633 12.375 20.8125V24.1875ZM13.5 21.375H15.75V23.625H13.5V21.375Z" fill="#04A04A"/>
<path d="M19.125 24.1875C19.125 24.3367 19.1843 24.4798 19.2898 24.5852C19.3952 24.6907 19.5383 24.75 19.6875 24.75H23.0625C23.2117 24.75 23.3548 24.6907 23.4602 24.5852C23.5657 24.4798 23.625 24.3367 23.625 24.1875V20.8125C23.625 20.6633 23.5657 20.5202 23.4602 20.4148C23.3548 20.3093 23.2117 20.25 23.0625 20.25H19.6875C19.5383 20.25 19.3952 20.3093 19.2898 20.4148C19.1843 20.5202 19.125 20.6633 19.125 20.8125V24.1875ZM20.25 21.375H22.5V23.625H20.25V21.375Z" fill="#04A04A"/>
<path d="M26.4375 18H29.8125C29.9617 18 30.1048 17.9407 30.2102 17.8352C30.3157 17.7298 30.375 17.5867 30.375 17.4375V14.0625C30.375 13.9133 30.3157 13.7702 30.2102 13.6648C30.1048 13.5593 29.9617 13.5 29.8125 13.5H26.4375C26.2883 13.5 26.1452 13.5593 26.0398 13.6648C25.9343 13.7702 25.875 13.9133 25.875 14.0625V17.4375C25.875 17.5867 25.9343 17.7298 26.0398 17.8352C26.1452 17.9407 26.2883 18 26.4375 18ZM27 14.625H29.25V16.875H27V14.625Z" fill="#04A04A"/>
<path d="M12.9375 18H16.3125C16.4617 18 16.6048 17.9407 16.7102 17.8352C16.8157 17.7298 16.875 17.5867 16.875 17.4375V14.0625C16.875 13.9133 16.8157 13.7702 16.7102 13.6648C16.6048 13.5593 16.4617 13.5 16.3125 13.5H12.9375C12.7883 13.5 12.6452 13.5593 12.5398 13.6648C12.4343 13.7702 12.375 13.9133 12.375 14.0625V17.4375C12.375 17.5867 12.4343 17.7298 12.5398 17.8352C12.6452 17.9407 12.7883 18 12.9375 18ZM13.5 14.625H15.75V16.875H13.5V14.625Z" fill="#04A04A"/>
<path d="M19.6875 18H23.0625C23.2117 18 23.3548 17.9407 23.4602 17.8352C23.5657 17.7298 23.625 17.5867 23.625 17.4375V14.0625C23.625 13.9133 23.5657 13.7702 23.4602 13.6648C23.3548 13.5593 23.2117 13.5 23.0625 13.5H19.6875C19.5383 13.5 19.3952 13.5593 19.2898 13.6648C19.1843 13.7702 19.125 13.9133 19.125 14.0625V17.4375C19.125 17.5867 19.1843 17.7298 19.2898 17.8352C19.3952 17.9407 19.5383 18 19.6875 18ZM20.25 14.625H22.5V16.875H20.25V14.625Z" fill="#04A04A"/>
</svg>
