<svg width="36" height="36" viewBox="0 0 36 36" fill="none" xmlns="http://www.w3.org/2000/svg">
<path d="M33.9416 34.1566L32.349 24.833C32.1774 23.8284 31.4648 23.0214 30.4891 22.7271L26.1935 21.431C26.1046 20.381 25.6741 19.3904 24.9576 18.6062C24.3845 17.979 23.6636 17.5224 22.869 17.2704C23.005 17.1195 23.1311 16.9691 23.2467 16.822C24.2682 15.5228 24.8151 14.0915 24.9544 13.1148H25.2857C26.1476 13.1148 26.8489 12.4137 26.8489 11.5517V10.7504C26.8489 10.1752 26.5253 9.65398 26.0386 9.38348V7.45664C26.0386 7.16548 25.8026 6.92944 25.5114 6.92944C25.2203 6.92944 24.9843 7.16541 24.9843 7.45664V9.61973C24.779 9.65538 24.534 9.71698 24.2834 9.82252C24.2578 9.83187 24.2328 9.8427 24.2092 9.8557C24.1526 9.88151 24.0959 9.90872 24.0394 9.93937V5.69095C24.0394 4.51723 23.0846 3.56238 21.9109 3.56238H20.4558C19.9539 3.56238 19.4636 3.73725 19.075 4.05492L18.9322 4.17164C18.67 4.38609 18.3389 4.50422 18.0001 4.50422C17.6613 4.50422 17.3302 4.38609 17.0679 4.17164L16.9252 4.05492C16.5366 3.73732 16.0463 3.56238 15.5444 3.56238H14.0892C12.9154 3.56238 11.9606 4.51723 11.9606 5.69095V9.93937C11.9041 9.90872 11.8475 9.88151 11.7909 9.8557C11.7672 9.8427 11.7424 9.83187 11.7167 9.82252C11.4661 9.71698 11.2211 9.65538 11.0158 9.61973V4.1502C11.0158 2.44315 12.4046 1.05434 14.1117 1.05434H21.8883C23.5954 1.05434 24.9842 2.44315 24.9842 4.1502V4.9789C24.9842 5.27006 25.2202 5.5061 25.5113 5.5061C25.8024 5.5061 26.0385 5.27013 26.0385 4.9789V4.1502C26.0385 1.8618 24.1767 0 21.8883 0H14.1117C11.8232 0 9.96148 1.8618 9.96148 4.1502V9.38355C9.47484 9.65405 9.15127 10.1752 9.15127 10.7505V11.5518C9.15127 12.4137 9.85249 13.1149 10.7144 13.1149H11.0458C11.1849 14.0916 11.7319 15.5229 12.7534 16.8221C12.8689 16.969 12.9949 17.1193 13.1307 17.27C11.304 17.8502 9.97188 19.4926 9.80658 21.431L5.51091 22.7271C4.53518 23.0214 3.82249 23.8284 3.65093 24.833L3.0042 28.6192C2.95519 28.9062 3.14813 29.1786 3.43507 29.2276C3.72195 29.2767 3.99441 29.0837 4.04349 28.7967L4.69022 25.0104C4.794 24.4027 5.22516 23.9145 5.81543 23.7365L9.78844 22.5378V23.5806C8.87775 23.7482 8.10284 24.3738 7.78369 25.2405C7.69896 25.4706 7.6463 25.7115 7.62717 25.9564L7.2432 30.885C7.21423 31.2562 7.34269 31.6259 7.59546 31.8991C7.84824 32.1723 8.20676 32.3291 8.57906 32.3291H9.23634C9.52751 32.3291 9.76355 32.0932 9.76355 31.8019C9.76355 31.5107 9.52751 31.2748 9.23634 31.2748H8.57906C8.49968 31.2748 8.42332 31.2415 8.36939 31.1831C8.31553 31.1249 8.28818 31.0461 8.29437 30.967L8.67834 26.0384C8.68995 25.89 8.7218 25.7441 8.77313 25.6048C8.99517 25.0019 9.5948 24.5936 10.2654 24.5888L10.3522 24.5882C10.3563 24.5881 10.3603 24.5881 10.3643 24.5881C11.016 24.5881 11.5929 24.9577 11.8363 25.5322C11.9046 25.6933 11.946 25.8636 11.9597 26.0384L12.3438 30.9671C12.3499 31.0461 12.3226 31.1249 12.2687 31.1832C12.2149 31.2414 12.1384 31.2748 12.059 31.2748H11.4018C11.1106 31.2748 10.8746 31.5108 10.8746 31.8019C10.8746 32.0931 11.1106 32.3291 11.4018 32.3291H12.059C12.4313 32.3291 12.7899 32.1724 13.0426 31.8991C13.2955 31.6258 13.4239 31.2562 13.395 30.885L13.0109 25.9564C12.9884 25.668 12.9198 25.3868 12.8071 25.1208C12.4598 24.3012 11.7173 23.7313 10.8427 23.5771V22.2197L12.6549 21.6728C12.8198 22.0201 13.1466 22.7706 13.7938 24.3882C14.4461 26.0205 15.2569 28.1126 16.0344 30.1465C16.04 30.1636 16.0464 30.1802 16.0536 30.1965C16.5725 31.5544 17.0758 32.8842 17.5064 34.0315C17.5836 34.2372 17.7802 34.3735 18 34.3735C18.2197 34.3735 18.4163 34.2372 18.4935 34.0315C18.924 32.8842 19.4274 31.5544 19.9463 30.1965C19.9536 30.1802 19.9599 30.1635 19.9655 30.1465C20.7425 28.1138 21.5528 26.023 22.2049 24.3913C22.8529 22.7715 23.1799 22.0204 23.3449 21.6728L25.1571 22.2197V25.3335C23.9015 25.5774 22.9504 26.6848 22.9504 28.0107C22.9504 29.5148 24.174 30.7385 25.6781 30.7385C27.1823 30.7385 28.4059 29.5149 28.4059 28.0107C28.4059 26.6891 27.4611 25.5844 26.2115 25.3357V22.5378L30.1845 23.7366C30.7748 23.9146 31.2059 24.4027 31.3098 25.0105L32.9023 34.3342C32.9288 34.4888 32.8876 34.6399 32.7865 34.7598C32.6854 34.8796 32.5432 34.9457 32.3864 34.9457H3.61352C3.45666 34.9457 3.31463 34.8797 3.21345 34.7598C3.11234 34.6399 3.07113 34.4888 3.09757 34.3342L3.62316 31.2571C3.67216 30.9701 3.47923 30.6978 3.19228 30.6488C2.90541 30.5996 2.63295 30.7927 2.58387 31.0797L2.05828 34.1567C1.97988 34.616 2.10722 35.0836 2.40759 35.4398C2.70811 35.7958 3.14763 36 3.61352 36H32.3864C32.8523 36 33.2919 35.7958 33.5923 35.4397C33.8927 35.0835 34.02 34.6159 33.9416 34.1566ZM24.9905 10.6938C25.2714 10.6237 25.4969 10.625 25.4994 10.6251C25.5903 10.6263 25.6786 10.605 25.757 10.5639C25.7805 10.6223 25.7944 10.6851 25.7944 10.7505V11.5518C25.7944 11.8323 25.5661 12.0606 25.2856 12.0606H24.9905V10.6938ZM11.0094 12.0606H10.7143C10.4338 12.0606 10.2055 11.8323 10.2055 11.5518V10.7505C10.2055 10.6851 10.2195 10.6223 10.2429 10.564C10.3213 10.6051 10.4096 10.6263 10.5005 10.6251C10.5045 10.6258 10.7294 10.6245 11.0094 10.694V12.0606ZM12.0638 12.6517V11.2667C12.2235 11.3145 12.3982 11.308 12.5595 11.2407C12.8362 11.1253 13.0149 10.8572 13.0149 10.5576V5.69095C13.0149 5.09864 13.4969 4.61672 14.0892 4.61672H15.5443C15.8036 4.61672 16.0569 4.70707 16.2577 4.87118L16.4004 4.9879C16.8505 5.35591 17.4185 5.55848 18 5.55848C18.5814 5.55848 19.1494 5.35584 19.5995 4.9879L19.7422 4.87118C19.9429 4.70707 20.1963 4.61672 20.4556 4.61672H21.9107C22.503 4.61672 22.985 5.09864 22.985 5.69095V10.5576C22.985 10.8572 23.1637 11.1253 23.4404 11.2408C23.5328 11.2793 23.6295 11.298 23.7254 11.298C23.7969 11.298 23.8679 11.2875 23.9362 11.2672V12.6517C23.9362 13.4214 23.404 14.9161 22.4178 16.1703C22.0912 16.5858 21.6712 17.0321 21.1542 17.4222C21.1379 17.4332 21.1222 17.4451 21.1072 17.4578C20.3063 18.0499 19.2764 18.5036 18 18.5036C16.7235 18.5036 15.6936 18.0499 14.8926 17.4577C14.8777 17.4451 14.862 17.4332 14.8457 17.4223C14.3287 17.0321 13.9088 16.5858 13.5821 16.1703C12.5959 14.9162 12.0638 13.4214 12.0638 12.6517ZM21.4537 21.169L18 23.7504L14.5462 21.169C14.8887 20.7337 15.0806 20.1749 15.0806 19.6763V18.8265C15.8928 19.2632 16.8619 19.558 18 19.558C19.138 19.558 20.1072 19.2632 20.9193 18.8265V19.6763C20.9193 20.1749 21.1112 20.7337 21.4537 21.169ZM13.6664 20.5805C13.3849 20.4733 13.0727 20.4557 12.7775 20.5358C12.7646 20.5388 12.7519 20.5423 12.7396 20.5459L10.9183 21.0955C11.2263 19.5808 12.4562 18.3753 14.0262 18.1418V19.6763C14.0262 20.007 13.8786 20.3489 13.6664 20.5805ZM15.0972 24.8125C15.0962 24.81 15.0952 24.8076 15.0943 24.8052C15.0676 24.7376 15.0412 24.671 15.015 24.6051C15.0103 24.5931 15.0056 24.5813 15.0009 24.5694C14.9753 24.505 14.9499 24.441 14.9249 24.378C14.9232 24.3736 14.9214 24.3693 14.9196 24.3648C14.8415 24.1684 14.7662 23.98 14.6938 23.7995C14.6885 23.7864 14.6832 23.7731 14.678 23.7601C14.6572 23.7084 14.6367 23.6574 14.6164 23.6071C14.6089 23.5886 14.6015 23.5703 14.5942 23.552C14.5745 23.5032 14.5549 23.4547 14.5357 23.4072C14.5299 23.393 14.5243 23.3793 14.5186 23.3651C14.4836 23.2789 14.4495 23.1949 14.4161 23.113C14.4071 23.0908 14.3979 23.0683 14.389 23.0464C14.3759 23.0145 14.3632 22.9834 14.3504 22.9521C14.3366 22.9184 14.3228 22.8849 14.3093 22.852C14.3043 22.8397 14.299 22.8267 14.2939 22.8144C14.2898 22.8046 14.2861 22.7955 14.2821 22.7857C14.2212 22.6378 14.1634 22.4984 14.1084 22.3673C14.108 22.3662 14.1075 22.3651 14.1071 22.3641C14.0779 22.2943 14.0492 22.2261 14.0217 22.1611C14.0075 22.1274 13.9934 22.0943 13.9796 22.0618L16.95 24.2819L15.7088 24.8091C15.7066 24.81 15.7044 24.811 15.7022 24.8119L15.184 25.0321C15.1546 24.9578 15.1259 24.8849 15.0972 24.8125ZM16.3551 28.0404C16.2509 27.7702 16.146 27.4984 16.0409 27.227C15.8765 26.8024 15.7195 26.3986 15.5693 26.014L15.766 25.9304L16.5698 26.8648L16.3551 28.0404ZM18.0101 32.3251C17.995 32.2938 17.977 32.2642 17.9562 32.2366C17.718 31.6069 17.4157 30.8102 17.081 29.9336L17.5732 27.2389H18.4267L18.9189 29.9336C18.5682 30.852 18.2533 31.6824 18.0101 32.3251ZM18.6244 26.1847H17.3755L16.7845 25.4977L18 24.9814L19.2154 25.4977L18.6244 26.1847ZM19.959 27.227C19.8539 27.4984 19.749 27.7702 19.6448 28.0404L19.4301 26.8647L20.2339 25.9303L20.4307 26.0139C20.2804 26.3985 20.1234 26.8024 19.959 27.227ZM21.9782 22.1611C21.9521 22.2227 21.925 22.2873 21.8974 22.3533C21.8938 22.3618 21.8901 22.3705 21.8865 22.3791C21.8592 22.4445 21.8314 22.5113 21.8025 22.5809C21.8006 22.5854 21.7987 22.5903 21.7968 22.5949C21.7719 22.6549 21.7463 22.7168 21.7204 22.7798C21.7155 22.7917 21.711 22.8026 21.7061 22.8144C21.7004 22.8286 21.6942 22.8435 21.6883 22.8578C21.6768 22.8859 21.6651 22.9146 21.6532 22.9433C21.6388 22.9787 21.6244 23.0139 21.6095 23.0501C21.6048 23.0617 21.6 23.0737 21.5952 23.0853C21.5585 23.1752 21.5208 23.2679 21.4823 23.3631C21.4762 23.378 21.4702 23.3926 21.4642 23.4077C21.4451 23.4548 21.4257 23.5028 21.4062 23.5511C21.3986 23.57 21.391 23.5889 21.3833 23.608C21.3632 23.6578 21.3429 23.7083 21.3224 23.7595C21.3166 23.7738 21.3108 23.7884 21.305 23.8028C21.2335 23.9808 21.1593 24.1665 21.0823 24.36C21.0798 24.3664 21.0773 24.3726 21.0747 24.3791C21.0498 24.4416 21.0247 24.5052 20.9992 24.5692C20.9945 24.5812 20.9897 24.5931 20.9849 24.6052C20.9586 24.6714 20.9321 24.7383 20.9053 24.8063C20.9048 24.8076 20.9043 24.8089 20.9038 24.81C20.8748 24.8833 20.8457 24.957 20.816 25.0322L20.2973 24.8119C20.2955 24.8111 20.2937 24.8103 20.2919 24.8096L19.0501 24.282L22.0204 22.062C22.0065 22.0943 21.9924 22.1273 21.9782 22.1611ZM23.2603 20.546C23.2602 20.546 23.2601 20.5459 23.26 20.5459C23.2596 20.5458 23.2591 20.5457 23.2587 20.5455C22.9528 20.4538 22.6266 20.469 22.3336 20.5805C22.1213 20.3489 21.9737 20.007 21.9737 19.6763V18.141C23.5536 18.3739 24.7798 19.5681 25.0838 21.0961L23.2603 20.546ZM27.3516 28.0107C27.3516 28.9335 26.6009 29.6842 25.6781 29.6842C24.7554 29.6842 24.0047 28.9335 24.0047 28.0107C24.0047 27.088 24.7554 26.3373 25.6781 26.3373C26.6009 26.3373 27.3516 27.088 27.3516 28.0107Z" fill="#04A04A"/>
</svg>
