<svg width="36" height="36" viewBox="0 0 36 36" fill="none" xmlns="http://www.w3.org/2000/svg">
<g clip-path="url(#clip0_387_21739)">
<path d="M4.88331 36H31.1168C31.9565 36 32.6396 35.3169 32.6396 34.4772V30.1229C32.6396 27.9108 31.277 25.8049 29.3259 25.0019C29.3225 25.0005 29.319 24.9992 29.3156 24.9978C28.635 24.7343 22.4389 22.3346 21.6152 22.0156C21.6091 22.0127 21.6031 22.0098 21.597 22.0069C21.5969 22.0069 21.5968 22.0068 21.5968 22.0068C21.5894 22.0034 21.5816 21.9961 21.5816 21.9864L21.5807 21.0059C21.7644 21.6775 22.3797 22.1729 23.1088 22.1729C23.9776 22.1729 24.6849 21.4698 24.6927 20.6028L26.74 19.9633C26.9602 19.8945 27.1101 19.6906 27.1101 19.4599V16.9318C27.9972 16.5881 28.6282 15.7263 28.6282 14.7193V14.6806C28.6282 14.3894 28.3921 14.1533 28.1008 14.1533C27.8095 14.1533 27.5734 14.3894 27.5734 14.6806V14.7193C27.5734 15.4458 26.9824 16.0369 26.2559 16.0369H26.1821V10.8633H26.2559C26.9824 10.8633 27.5734 11.4543 27.5734 12.1808C27.5734 12.4721 27.8095 12.7082 28.1008 12.7082C28.3921 12.7082 28.6282 12.4721 28.6282 12.1808C28.6282 11.1738 27.9972 10.3119 27.1101 9.96828V8.07148C27.1101 5.9543 26.2936 3.9521 24.8109 2.43374C23.3308 0.918056 21.3538 0.0537894 19.244 0.000137474C19.2395 6.71568e-05 19.235 -3.1602e-06 19.2304 -3.1602e-06C18.9454 -3.1602e-06 18.7107 0.227402 18.7034 0.513944C18.6961 0.805127 18.9261 1.04716 19.2173 1.05454C22.9878 1.15045 26.0554 4.29827 26.0554 8.07155V9.79164C25.8972 9.52409 25.6064 9.34365 25.2737 9.34365H25.1972V8.07155C25.1972 4.67432 22.4332 1.91044 19.036 1.91044H16.9641C13.5669 1.91044 10.803 4.67432 10.803 8.07155V9.34365H10.7265C10.3938 9.34365 10.1031 9.52402 9.94487 9.7915V8.07148C9.94487 4.2982 13.0125 1.15038 16.783 1.05447C17.0742 1.04709 17.3042 0.805057 17.2969 0.513874C17.2895 0.222691 17.0452 -0.00766772 16.7563 6.71568e-05C14.6464 0.0537191 12.6694 0.917986 11.1894 2.43367C9.70671 3.95203 8.89019 5.95423 8.89019 8.07148V9.96821C8.00307 10.3118 7.37204 11.1738 7.37204 12.1808V14.7194C7.37204 16.0275 8.43629 17.0917 9.74433 17.0917H9.93454C10.0903 17.3687 10.3867 17.5565 10.7265 17.5565H12.0932C12.1518 17.5565 12.2091 17.5505 12.2647 17.5398C12.6541 18.6856 13.3928 19.7068 14.4154 20.4409V21.9784L14.4133 21.9793C14.4132 21.9793 14.413 21.9793 14.4129 21.9794C7.54312 24.6625 6.93622 24.8995 6.68329 24.9983C6.68033 24.9995 6.67738 25.0006 6.67443 25.0019C5.07844 25.6587 3.3606 27.5413 3.3606 30.1228V34.4771C3.36053 35.3169 4.04366 36 4.88331 36ZM9.81809 16.037H9.74426C9.01774 16.037 8.42673 15.4459 8.42673 14.7195V12.1809C8.42673 11.4544 9.01774 10.8633 9.74426 10.8633H9.81809V16.037ZM16.5654 34.9452L17.3788 28.205H18.6214L19.4348 34.9452H16.5654ZM18.0001 25.9649L18.76 26.8936L18.6884 27.1503H17.3118L17.2403 26.8937L18.0001 25.9649ZM15.3782 22.4223C15.4375 22.2885 15.4701 22.1413 15.4701 21.9836V21.0444C16.9429 21.6979 18.8261 21.8261 20.5261 21.0595L20.5269 21.9882C20.5272 22.1406 20.5606 22.2883 20.621 22.423L18.0721 24.5084H18.072C18.0467 24.5292 18.0228 24.551 18.0001 24.5736C17.9774 24.551 17.9535 24.5291 17.9281 24.5084L15.3782 22.4223ZM28.9293 25.9793C30.2498 26.5253 31.5849 28.1225 31.5849 30.1229V34.4772C31.5849 34.7353 31.375 34.9452 31.1169 34.9452H27.513V30.8996C27.513 30.6084 27.2769 30.3722 26.9856 30.3722C26.6943 30.3722 26.4582 30.6084 26.4582 30.8996V34.9452H20.4973L19.6547 27.963C20.0839 28.3374 20.7022 28.2371 20.9781 27.9236L24.2682 24.1741L28.9293 25.9793ZM23.2207 23.7684L20.2944 27.1034L18.7994 25.2762L21.4706 23.0907L23.2207 23.7684ZM23.1089 21.1181C22.8169 21.1181 22.5794 20.8806 22.5794 20.5885C22.5794 20.2965 22.8169 20.0591 23.1089 20.0591C23.4008 20.0591 23.6383 20.2966 23.6383 20.5885C23.6383 20.8805 23.4009 21.1181 23.1089 21.1181ZM25.2736 17.5567C25.6064 17.5567 25.8971 17.3763 26.0554 17.1087V19.0722L24.3495 19.6051C24.059 19.2394 23.611 19.0043 23.1088 19.0043C23.0684 19.0043 23.0286 19.0063 22.9889 19.0093C23.3008 18.56 23.5521 18.0662 23.7322 17.5394C23.7888 17.5504 23.8472 17.5566 23.907 17.5566H25.2736V17.5567ZM25.1273 16.5019H24.0534C24.0534 15.8906 24.0534 11.0144 24.0534 10.3985H25.1273V16.5019ZM11.9468 16.5019H10.8728V10.3985H11.9468V16.5019ZM12.0931 9.34373H11.8577V8.07162C11.8577 5.25598 14.1484 2.96527 16.9641 2.96527H19.036C21.8517 2.96527 24.1424 5.25598 24.1424 8.07162V9.34373H23.907C23.406 9.34373 22.9985 9.75121 22.9985 10.2522V10.8322C22.678 10.561 22.4772 10.1575 22.4772 9.71859C22.4772 9.42895 22.2809 9.1775 21.9999 9.10711C21.7197 9.03679 21.4283 9.16582 21.2921 9.42065C20.7127 10.5044 19.5905 11.1777 18.3636 11.1777H13.0015V10.2521C13.0016 9.75121 12.5941 9.34373 12.0931 9.34373ZM13.0016 15.6114V12.2324H18.3637C19.6379 12.2324 20.8263 11.6816 21.6463 10.7492C21.9111 11.3321 22.3937 11.8042 22.9986 12.0494V15.6114C22.9986 18.3302 20.7811 20.531 18.0789 20.531C14.9007 20.531 13.0016 18.0297 13.0016 15.6114ZM14.5093 23.0741L17.2007 25.2762L15.7056 27.1034L12.7656 23.7551L14.5093 23.0741ZM4.41528 30.1229C4.41528 27.8877 6.00191 26.4215 7.0713 25.9791L11.7204 24.1633L15.0223 27.9237C15.2892 28.2277 15.9074 28.3451 16.3456 27.963L15.5029 34.9452H9.54203V30.8996C9.54203 30.6084 9.30597 30.3722 9.01465 30.3722C8.72332 30.3722 8.48727 30.6084 8.48727 30.8996V34.9452H4.88331C4.62525 34.9452 4.41528 34.7353 4.41528 34.4772V30.1229Z" fill="#04A04A"/>
</g>
<defs>
<clipPath id="clip0_387_21739">
<rect width="36" height="36" fill="white"/>
</clipPath>
</defs>
</svg>
