<svg width="36" height="36" viewBox="0 0 36 36" fill="none" xmlns="http://www.w3.org/2000/svg">
<path d="M9.62645 12.352L10.5299 12.9352C10.6175 12.9917 10.7169 13.0194 10.8157 13.0194C10.944 13.0194 11.0714 12.9727 11.1713 12.8817L13.3123 10.9284C13.5275 10.7321 13.5428 10.3986 13.3465 10.1834C13.1502 9.96819 12.8167 9.953 12.6015 10.1492L10.7606 11.8287L10.1984 11.4658C9.95376 11.308 9.62737 11.3782 9.46937 11.6229C9.31138 11.8676 9.38176 12.194 9.62645 12.352Z" fill="#04A04A"/>
<path d="M15.1987 12.0428H22.6874C22.9787 12.0428 23.2147 11.8067 23.2147 11.5154C23.2147 11.2241 22.9787 10.9881 22.6874 10.9881H15.1987C14.9075 10.9881 14.6714 11.2241 14.6714 11.5154C14.6714 11.8067 14.9075 12.0428 15.1987 12.0428Z" fill="#04A04A"/>
<path d="M15.1987 16.746H22.6874C22.9787 16.746 23.2147 16.51 23.2147 16.2187C23.2147 15.9274 22.9787 15.6913 22.6874 15.6913H15.1987C14.9075 15.6913 14.6714 15.9274 14.6714 16.2187C14.6714 16.51 14.9075 16.746 15.1987 16.746Z" fill="#04A04A"/>
<path d="M15.1987 21.4494H21.3154C21.6067 21.4494 21.8427 21.2134 21.8427 20.9221C21.8427 20.6308 21.6067 20.3947 21.3154 20.3947H15.1987C14.9075 20.3947 14.6714 20.6308 14.6714 20.9221C14.6714 21.2134 14.9075 21.4494 15.1987 21.4494Z" fill="#04A04A"/>
<path d="M15.1987 26.1547H17.4999C17.7912 26.1547 18.0273 25.9186 18.0273 25.6273C18.0273 25.336 17.7912 25.1 17.4999 25.1H15.1987C14.9075 25.1 14.6714 25.336 14.6714 25.6273C14.6714 25.9186 14.9075 26.1547 15.1987 26.1547Z" fill="#04A04A"/>
<path d="M12.6016 14.4887L10.7601 16.1687L10.1978 15.8069C9.95281 15.6494 9.62649 15.7201 9.46892 15.9651C9.31135 16.21 9.38216 16.5363 9.62713 16.6939L10.5306 17.2751C10.618 17.3314 10.7171 17.3589 10.8158 17.3589C10.944 17.3589 11.0715 17.3123 11.1713 17.2212L13.3123 15.2679C13.5275 15.0716 13.5428 14.7381 13.3465 14.5229C13.1503 14.3077 12.8167 14.2925 12.6016 14.4887Z" fill="#04A04A"/>
<path d="M9.62645 21.033L10.5299 21.6162C10.6175 21.6727 10.7169 21.7004 10.8157 21.7004C10.944 21.7004 11.0714 21.6537 11.1713 21.5627L13.3123 19.6095C13.5275 19.4131 13.5428 19.0796 13.3465 18.8644C13.1502 18.6492 12.8167 18.6341 12.6015 18.8302L10.7606 20.5097L10.1984 20.1468C9.95376 19.989 9.62737 20.0592 9.46937 20.3039C9.31138 20.5486 9.38176 20.875 9.62645 21.033Z" fill="#04A04A"/>
<path d="M9.6264 25.3724L10.5298 25.9557C10.6175 26.0123 10.7168 26.04 10.8157 26.04C10.944 26.04 11.0715 25.9933 11.1713 25.9022L13.3123 23.949C13.5275 23.7526 13.5428 23.4191 13.3465 23.2039C13.1503 22.9887 12.8166 22.9735 12.6015 23.1698L10.7606 24.8493L10.1985 24.4864C9.95378 24.3283 9.62732 24.3986 9.46939 24.6434C9.3114 24.8881 9.38171 25.2144 9.6264 25.3724Z" fill="#04A04A"/>
<path d="M28.8356 27.2074H27.6648V26.0365C27.6648 25.6258 27.3306 25.2916 26.92 25.2916H24.7533C24.3426 25.2916 24.0085 25.6258 24.0085 26.0365V27.2074H22.8376C22.4259 27.2074 22.0908 27.5424 22.0908 27.9541V30.1189C22.0908 30.5307 22.4259 30.8657 22.8376 30.8657H24.0085V32.0366C24.0085 32.4473 24.3426 32.7815 24.7533 32.7815H26.92C27.3306 32.7815 27.6648 32.4473 27.6648 32.0366V30.8657H28.8356C29.2474 30.8657 29.5824 30.5307 29.5824 30.1189V27.9541C29.5825 27.5424 29.2474 27.2074 28.8356 27.2074ZM28.5278 29.811H27.4479C26.986 29.811 26.6102 30.1859 26.6102 30.6468V31.7268H25.0632V30.6468C25.0632 30.1859 24.6874 29.811 24.2255 29.811H23.1455V28.262H24.2254C24.6873 28.262 25.0631 27.8871 25.0631 27.4262V26.3463H26.6101V27.4262C26.6101 27.8871 26.9859 28.262 27.4478 28.262H28.5277V29.811H28.5278Z" fill="#04A04A"/>
<path d="M29.9086 23.3908V15.6592C29.9086 15.3679 29.6726 15.1319 29.3813 15.1319C29.09 15.1319 28.8539 15.3679 28.8539 15.6592V22.7611C28.311 22.499 27.7289 22.3059 27.1192 22.192V6.48204C27.1192 6.0037 26.7292 5.61459 26.2498 5.61459H23.1198V3.87984H28.3414C28.6241 3.87984 28.8539 4.10892 28.8539 4.39045V13.2434C28.8539 13.5347 29.09 13.7707 29.3813 13.7707C29.6726 13.7707 29.9086 13.5347 29.9086 13.2434V4.39038C29.9086 3.5273 29.2056 2.82509 28.3414 2.82509H23.0641C22.9375 2.47852 22.606 2.22996 22.2169 2.22996H20.3603C20.1654 1.88198 19.9233 1.56241 19.6381 1.27737C18.8145 0.453656 17.7188 0 16.553 0C15.3862 0 14.2911 0.453797 13.4697 1.27737C13.1833 1.56375 12.9409 1.88269 12.7459 2.23003H10.891C10.501 2.23003 10.1688 2.47852 10.0419 2.82516H4.76445C3.90136 2.82516 3.19922 3.5273 3.19922 4.39045V32.3491C3.19922 33.2121 3.90136 33.9143 4.76445 33.9143H20.8719C22.1362 35.2007 23.8947 36 25.8367 36C29.6767 36 32.8009 32.8757 32.8009 29.0355C32.8009 26.7152 31.6594 24.6567 29.9086 23.3908ZM11.0407 3.28472H12.9925L13.0101 3.28514C13.2622 3.29133 13.4615 3.16941 13.567 2.93667L13.5724 2.925C13.7319 2.59383 13.9483 2.29043 14.216 2.02268C14.8385 1.39852 15.6684 1.05469 16.553 1.05469C17.4371 1.05469 18.268 1.39866 18.8923 2.02317C19.1571 2.28783 19.3728 2.59123 19.5335 2.92493C19.5346 2.92725 19.5358 2.92957 19.537 2.93196L19.5443 2.94722C19.6834 3.23662 19.9213 3.29147 20.0969 3.28507L22.065 3.28472V6.41932H11.0407V3.28472ZM4.76445 32.8596C4.48291 32.8596 4.25391 32.6306 4.25391 32.349V4.39038C4.25391 4.10885 4.48291 3.87977 4.76445 3.87977H9.98606V5.61459H6.85603C6.37777 5.61459 5.98866 6.0037 5.98866 6.48204V19.6251C5.98866 19.9164 6.22477 20.1524 6.516 20.1524C6.80723 20.1524 7.04334 19.9164 7.04334 19.6251V6.66935H9.99169C10.041 7.12118 10.4253 7.47401 10.891 7.47401H22.2169C22.6815 7.47401 23.0651 7.12118 23.1143 6.66935H26.0646V22.0773C25.9889 22.0748 25.913 22.0731 25.8368 22.0731C21.9966 22.0731 18.8724 25.1965 18.8724 29.0355C18.8724 29.387 18.8989 29.7324 18.9494 30.0701H7.04334V22.041C7.04334 21.7497 6.80723 21.5137 6.516 21.5137C6.22477 21.5137 5.98866 21.7497 5.98866 22.041V30.2574C5.98866 30.7356 6.37777 31.1247 6.85603 31.1247H19.1926C19.388 31.7448 19.6682 32.3274 20.0191 32.8596H4.76445ZM25.8367 34.9453C22.5781 34.9453 19.9271 32.2943 19.9271 29.0355C19.9271 25.778 22.5781 23.1278 25.8367 23.1278C29.0952 23.1278 31.7462 25.778 31.7462 29.0355C31.7462 32.2943 29.0952 34.9453 25.8367 34.9453Z" fill="#04A04A"/>
</svg>
