<svg width="36" height="36" viewBox="0 0 36 36" fill="none" xmlns="http://www.w3.org/2000/svg">
<path d="M34.7688 17.8754H26.4093C23.7611 17.8754 21.6067 20.0299 21.6067 22.6781C21.6067 25.3262 23.7611 27.4807 26.4093 27.4807H34.7688C35.4477 27.4807 36 26.9284 36 26.2495V19.1065C36 18.4277 35.4478 17.8754 34.7688 17.8754ZM34.9453 26.2495C34.9453 26.3468 34.8661 26.426 34.7688 26.426H26.4093C24.3427 26.426 22.6614 24.7447 22.6614 22.6781C22.6614 20.6114 24.3427 18.9301 26.4093 18.9301H34.7688C34.8661 18.9301 34.9453 19.0093 34.9453 19.1066V26.2495Z" fill="#04A04A"/>
<path d="M26.5882 20.3567C25.3082 20.3567 24.2668 21.3981 24.2668 22.6781C24.2668 23.958 25.3082 24.9994 26.5882 24.9994C27.8683 24.9994 28.9097 23.958 28.9097 22.6781C28.9096 21.398 27.8683 20.3567 26.5882 20.3567ZM26.5882 23.9447C25.8897 23.9447 25.3215 23.3764 25.3215 22.678C25.3215 21.9795 25.8897 21.4113 26.5882 21.4113C27.2867 21.4113 27.855 21.9796 27.855 22.678C27.8549 23.3765 27.2866 23.9447 26.5882 23.9447Z" fill="#04A04A"/>
<path d="M34.0331 28.9167C33.7418 28.9167 33.5058 29.1528 33.5058 29.4441V32.8848C33.5058 33.3895 33.0952 33.8001 32.5905 33.8001H2.98055C1.91862 33.8001 1.05469 32.9361 1.05469 31.8742V11.8188C1.46475 12.1668 1.97002 12.4054 2.52513 12.4909C2.8788 12.5462 0.960611 12.5263 32.5905 12.5263C33.0952 12.5263 33.5059 12.9369 33.5059 13.4416V15.9113C33.5059 16.2025 33.7419 16.4387 34.0332 16.4387C34.3245 16.4387 34.5606 16.2025 34.5606 15.9113V13.4416C34.5606 12.3553 33.6769 11.4716 32.5905 11.4716H32.28V8.67095C32.28 7.58469 31.3963 6.70101 30.31 6.70101H28.5434V2.35907C28.5434 1.68976 27.9989 1.14526 27.3296 1.14526H4.95035C4.28098 1.14526 3.73648 1.68976 3.73648 2.35907V3.35097C3.73648 3.6422 3.97252 3.87831 4.26382 3.87831C4.55512 3.87831 4.79116 3.6422 4.79116 3.35097V2.35907C4.79116 2.27132 4.8626 2.19995 4.95035 2.19995H27.3296C27.4173 2.19995 27.4887 2.27132 27.4887 2.35907V7.22694C27.4887 7.22744 27.4887 7.22786 27.4887 7.22828C27.4887 7.2287 27.4887 7.22919 27.4887 7.22962V9.01837H20.9917C20.7284 6.63913 18.7064 4.78232 16.2582 4.78232C13.81 4.78232 11.788 6.63913 11.5247 9.01837H4.79123V5.79172C4.79123 5.50049 4.5552 5.26438 4.26389 5.26438C3.97259 5.26438 3.73655 5.50049 3.73655 5.79172V6.70094H2.92514C1.27596 6.70094 0 8.09397 0 9.54578V31.8743C0 33.5178 1.33706 34.8548 2.98055 34.8548H32.5905C33.6768 34.8548 34.5606 33.9711 34.5606 32.8848V29.4441C34.5605 29.1528 34.3245 28.9167 34.0331 28.9167ZM16.2582 5.83708C18.1241 5.83708 19.6719 7.22244 19.9288 9.01844H12.5876C12.8445 7.22237 14.3923 5.83708 16.2582 5.83708ZM2.92514 7.75562H3.73655V9.01837H3.05592C2.76462 9.01837 2.52858 9.25447 2.52858 9.54571C2.52858 9.83694 2.76462 10.0731 3.05592 10.0731H29.4604C29.7518 10.0731 29.9878 9.83694 29.9878 9.54571C29.9878 9.25447 29.7518 9.01837 29.4604 9.01837H28.5434V7.75562H30.31C30.8147 7.75562 31.2253 8.16618 31.2253 8.67088V11.4716C10.5142 11.4709 2.96002 11.473 2.88323 11.4691C1.88578 11.4185 1.07662 10.5941 1.05581 9.58614C1.07705 8.57603 1.91384 7.75562 2.92514 7.75562Z" fill="#04A04A"/>
</svg>
